<?xml version="1.0" encoding="UTF-8"?>
<svg xmlns="http://www.w3.org/2000/svg" xmlns:xlink="http://www.w3.org/1999/xlink" width="1920pt" height="1080pt" viewBox="0 0 1920 1080" version="1.1">
<defs>
<g>
<symbol overflow="visible" id="glyph0-0">
<path style="stroke:none;" d="M 0.1875 0.640625 L 0.1875 -2.546875 L 1.984375 -2.546875 L 1.984375 0.640625 Z M 0.375 0.4375 L 1.78125 0.4375 L 1.78125 -2.34375 L 0.375 -2.34375 Z "/>
</symbol>
<symbol overflow="visible" id="glyph0-1">
<path style="stroke:none;" d="M 0.171875 0 L 0.171875 -0.21875 L 0.5 -0.21875 L 0.5 -2.421875 L 0.171875 -2.421875 L 0.171875 -2.625 L 1.515625 -2.625 L 1.515625 -2.421875 L 1.1875 -2.421875 L 1.1875 -1.453125 L 2.296875 -2.421875 L 2.015625 -2.421875 L 2.015625 -2.625 L 3 -2.625 L 3 -2.421875 L 2.65625 -2.421875 L 1.703125 -1.609375 L 2.984375 -0.21875 L 3.25 -0.21875 L 3.25 0 L 2.359375 0 L 1.1875 -1.28125 L 1.1875 -0.21875 L 1.515625 -0.21875 L 1.515625 0 Z "/>
</symbol>
<symbol overflow="visible" id="glyph0-2">
<path style="stroke:none;" d="M 2.84375 -2.625 L 2.84375 -2.421875 L 2.625 -2.421875 L 1.640625 0 L 1.21875 0 L 0.234375 -2.421875 L -0.015625 -2.421875 L -0.015625 -2.625 L 1.21875 -2.625 L 1.21875 -2.421875 L 0.953125 -2.421875 L 1.671875 -0.671875 L 2.375 -2.421875 L 2.0625 -2.421875 L 2.0625 -2.625 Z "/>
</symbol>
<symbol overflow="visible" id="glyph0-3">
<path style="stroke:none;" d=""/>
</symbol>
<symbol overflow="visible" id="glyph0-4">
<path style="stroke:none;" d="M 2.6875 -0.75 C 2.613281 -0.476562 2.488281 -0.273438 2.3125 -0.140625 C 2.132812 -0.015625 1.894531 0.046875 1.59375 0.046875 C 1.144531 0.046875 0.789062 -0.0703125 0.53125 -0.3125 C 0.28125 -0.5625 0.15625 -0.894531 0.15625 -1.3125 C 0.15625 -1.726562 0.28125 -2.054688 0.53125 -2.296875 C 0.789062 -2.546875 1.144531 -2.671875 1.59375 -2.671875 C 1.75 -2.671875 1.910156 -2.648438 2.078125 -2.609375 C 2.242188 -2.578125 2.421875 -2.523438 2.609375 -2.453125 L 2.609375 -1.8125 L 2.390625 -1.8125 C 2.347656 -2.03125 2.265625 -2.191406 2.140625 -2.296875 C 2.023438 -2.410156 1.863281 -2.46875 1.65625 -2.46875 C 1.40625 -2.46875 1.21875 -2.375 1.09375 -2.1875 C 0.96875 -2 0.90625 -1.707031 0.90625 -1.3125 C 0.90625 -0.914062 0.96875 -0.625 1.09375 -0.4375 C 1.21875 -0.25 1.410156 -0.15625 1.671875 -0.15625 C 1.847656 -0.15625 1.988281 -0.203125 2.09375 -0.296875 C 2.207031 -0.398438 2.289062 -0.550781 2.34375 -0.75 Z "/>
</symbol>
<symbol overflow="visible" id="glyph0-5">
<path style="stroke:none;" d="M 1.984375 -1.15625 L 1.984375 -0.21875 L 2.25 -0.21875 L 2.25 0 L 1.359375 0 L 1.359375 -0.234375 C 1.273438 -0.140625 1.179688 -0.0664062 1.078125 -0.015625 C 0.984375 0.0234375 0.875 0.046875 0.75 0.046875 C 0.550781 0.046875 0.398438 0 0.296875 -0.09375 C 0.191406 -0.195312 0.140625 -0.347656 0.140625 -0.546875 C 0.140625 -0.753906 0.210938 -0.910156 0.359375 -1.015625 C 0.515625 -1.117188 0.738281 -1.171875 1.03125 -1.171875 L 1.359375 -1.171875 L 1.359375 -1.28125 C 1.359375 -1.4375 1.320312 -1.550781 1.25 -1.625 C 1.1875 -1.695312 1.078125 -1.734375 0.921875 -1.734375 C 0.796875 -1.734375 0.695312 -1.707031 0.625 -1.65625 C 0.5625 -1.601562 0.515625 -1.519531 0.484375 -1.40625 L 0.296875 -1.40625 L 0.296875 -1.8125 C 0.398438 -1.84375 0.507812 -1.867188 0.625 -1.890625 C 0.75 -1.910156 0.878906 -1.921875 1.015625 -1.921875 C 1.347656 -1.921875 1.59375 -1.859375 1.75 -1.734375 C 1.90625 -1.609375 1.984375 -1.414062 1.984375 -1.15625 Z M 1.359375 -0.59375 L 1.359375 -0.96875 L 1.125 -0.96875 C 1.007812 -0.96875 0.921875 -0.9375 0.859375 -0.875 C 0.796875 -0.8125 0.765625 -0.71875 0.765625 -0.59375 C 0.765625 -0.476562 0.785156 -0.390625 0.828125 -0.328125 C 0.878906 -0.265625 0.953125 -0.234375 1.046875 -0.234375 C 1.140625 -0.234375 1.210938 -0.265625 1.265625 -0.328125 C 1.328125 -0.398438 1.359375 -0.488281 1.359375 -0.59375 Z "/>
</symbol>
<symbol overflow="visible" id="glyph0-6">
<path style="stroke:none;" d="M 2.03125 -0.578125 C 1.988281 -0.367188 1.894531 -0.210938 1.75 -0.109375 C 1.613281 -0.00390625 1.429688 0.046875 1.203125 0.046875 C 0.867188 0.046875 0.609375 -0.0351562 0.421875 -0.203125 C 0.234375 -0.378906 0.140625 -0.625 0.140625 -0.9375 C 0.140625 -1.25 0.226562 -1.488281 0.40625 -1.65625 C 0.59375 -1.832031 0.847656 -1.921875 1.171875 -1.921875 C 1.304688 -1.921875 1.4375 -1.90625 1.5625 -1.875 C 1.695312 -1.851562 1.832031 -1.820312 1.96875 -1.78125 L 1.96875 -1.25 L 1.78125 -1.25 C 1.757812 -1.414062 1.710938 -1.535156 1.640625 -1.609375 C 1.566406 -1.679688 1.460938 -1.71875 1.328125 -1.71875 C 1.148438 -1.71875 1.023438 -1.660156 0.953125 -1.546875 C 0.878906 -1.429688 0.84375 -1.226562 0.84375 -0.9375 C 0.84375 -0.65625 0.878906 -0.453125 0.953125 -0.328125 C 1.023438 -0.203125 1.140625 -0.140625 1.296875 -0.140625 C 1.421875 -0.140625 1.519531 -0.175781 1.59375 -0.25 C 1.675781 -0.332031 1.726562 -0.441406 1.75 -0.578125 Z "/>
</symbol>
<symbol overflow="visible" id="glyph0-7">
<path style="stroke:none;" d="M 0.125 0 L 0.125 -0.21875 L 0.390625 -0.21875 L 0.390625 -2.53125 L 0.109375 -2.53125 L 0.109375 -2.75 L 1.015625 -2.75 L 1.015625 -1.609375 C 1.085938 -1.722656 1.171875 -1.800781 1.265625 -1.84375 C 1.367188 -1.894531 1.492188 -1.921875 1.640625 -1.921875 C 1.847656 -1.921875 2.003906 -1.859375 2.109375 -1.734375 C 2.222656 -1.609375 2.28125 -1.425781 2.28125 -1.1875 L 2.28125 -0.21875 L 2.546875 -0.21875 L 2.546875 0 L 1.421875 0 L 1.421875 -0.21875 L 1.65625 -0.21875 L 1.65625 -1.203125 C 1.65625 -1.367188 1.632812 -1.476562 1.59375 -1.53125 C 1.550781 -1.59375 1.476562 -1.625 1.375 -1.625 C 1.25 -1.625 1.15625 -1.578125 1.09375 -1.484375 C 1.039062 -1.398438 1.015625 -1.253906 1.015625 -1.046875 L 1.015625 -0.21875 L 1.25 -0.21875 L 1.25 0 Z "/>
</symbol>
<symbol overflow="visible" id="glyph0-8">
<path style="stroke:none;" d="M 1.453125 -1.0625 C 1.453125 -1.300781 1.425781 -1.46875 1.375 -1.5625 C 1.332031 -1.664062 1.253906 -1.71875 1.140625 -1.71875 C 1.035156 -1.71875 0.957031 -1.671875 0.90625 -1.578125 C 0.863281 -1.484375 0.84375 -1.320312 0.84375 -1.09375 L 0.84375 -1.0625 Z M 2.125 -0.84375 L 0.84375 -0.84375 L 0.84375 -0.828125 C 0.84375 -0.585938 0.878906 -0.410156 0.953125 -0.296875 C 1.023438 -0.191406 1.144531 -0.140625 1.3125 -0.140625 C 1.445312 -0.140625 1.554688 -0.175781 1.640625 -0.25 C 1.722656 -0.320312 1.773438 -0.425781 1.796875 -0.5625 L 2.09375 -0.5625 C 2.039062 -0.351562 1.9375 -0.195312 1.78125 -0.09375 C 1.632812 0 1.425781 0.046875 1.15625 0.046875 C 0.832031 0.046875 0.582031 -0.0351562 0.40625 -0.203125 C 0.226562 -0.378906 0.140625 -0.625 0.140625 -0.9375 C 0.140625 -1.25 0.226562 -1.488281 0.40625 -1.65625 C 0.59375 -1.832031 0.84375 -1.921875 1.15625 -1.921875 C 1.46875 -1.921875 1.703125 -1.828125 1.859375 -1.640625 C 2.023438 -1.460938 2.113281 -1.195312 2.125 -0.84375 Z "/>
</symbol>
<symbol overflow="visible" id="glyph0-9">
<path style="stroke:none;" d="M 1.515625 0.5625 C 1.117188 0.414062 0.820312 0.207031 0.625 -0.0625 C 0.4375 -0.34375 0.34375 -0.6875 0.34375 -1.09375 C 0.34375 -1.5 0.4375 -1.835938 0.625 -2.109375 C 0.820312 -2.378906 1.117188 -2.59375 1.515625 -2.75 L 1.515625 -2.53125 C 1.328125 -2.414062 1.191406 -2.25 1.109375 -2.03125 C 1.035156 -1.8125 1 -1.5 1 -1.09375 C 1 -0.6875 1.035156 -0.367188 1.109375 -0.140625 C 1.191406 0.078125 1.328125 0.238281 1.515625 0.34375 Z "/>
</symbol>
<symbol overflow="visible" id="glyph0-10">
<path style="stroke:none;" d="M 1.75 -2.28125 L 1.546875 -2.28125 C 1.535156 -2.363281 1.507812 -2.425781 1.46875 -2.46875 C 1.425781 -2.519531 1.363281 -2.546875 1.28125 -2.546875 C 1.1875 -2.546875 1.117188 -2.507812 1.078125 -2.4375 C 1.035156 -2.375 1.015625 -2.265625 1.015625 -2.109375 L 1.015625 -1.875 L 1.484375 -1.875 L 1.484375 -1.65625 L 1.015625 -1.65625 L 1.015625 -0.21875 L 1.375 -0.21875 L 1.375 0 L 0.125 0 L 0.125 -0.21875 L 0.390625 -0.21875 L 0.390625 -1.65625 L 0.109375 -1.65625 L 0.109375 -1.875 L 0.390625 -1.875 L 0.390625 -2.109375 C 0.390625 -2.316406 0.453125 -2.472656 0.578125 -2.578125 C 0.710938 -2.691406 0.910156 -2.75 1.171875 -2.75 C 1.273438 -2.75 1.375 -2.738281 1.46875 -2.71875 C 1.5625 -2.707031 1.65625 -2.691406 1.75 -2.671875 Z "/>
</symbol>
<symbol overflow="visible" id="glyph0-11">
<path style="stroke:none;" d="M 2.234375 -1.875 L 2.234375 -0.21875 L 2.5 -0.21875 L 2.5 0 L 1.609375 0 L 1.609375 -0.265625 C 1.535156 -0.148438 1.445312 -0.0664062 1.34375 -0.015625 C 1.25 0.0234375 1.128906 0.046875 0.984375 0.046875 C 0.773438 0.046875 0.613281 -0.015625 0.5 -0.140625 C 0.394531 -0.265625 0.34375 -0.445312 0.34375 -0.6875 L 0.34375 -1.65625 L 0.078125 -1.65625 L 0.078125 -1.875 L 0.96875 -1.875 L 0.96875 -0.78125 C 0.96875 -0.550781 0.988281 -0.398438 1.03125 -0.328125 C 1.070312 -0.265625 1.144531 -0.234375 1.25 -0.234375 C 1.375 -0.234375 1.460938 -0.28125 1.515625 -0.375 C 1.578125 -0.46875 1.609375 -0.617188 1.609375 -0.828125 L 1.609375 -1.65625 L 1.375 -1.65625 L 1.375 -1.875 Z "/>
</symbol>
<symbol overflow="visible" id="glyph0-12">
<path style="stroke:none;" d="M 1.015625 -0.21875 L 1.28125 -0.21875 L 1.28125 0 L 0.125 0 L 0.125 -0.21875 L 0.390625 -0.21875 L 0.390625 -2.53125 L 0.125 -2.53125 L 0.125 -2.75 L 1.015625 -2.75 Z "/>
</symbol>
<symbol overflow="visible" id="glyph0-13">
<path style="stroke:none;" d="M 0.1875 0.5625 L 0.1875 0.34375 C 0.375 0.238281 0.503906 0.078125 0.578125 -0.140625 C 0.660156 -0.367188 0.703125 -0.6875 0.703125 -1.09375 C 0.703125 -1.5 0.660156 -1.8125 0.578125 -2.03125 C 0.503906 -2.25 0.375 -2.414062 0.1875 -2.53125 L 0.1875 -2.75 C 0.582031 -2.59375 0.875 -2.378906 1.0625 -2.109375 C 1.257812 -1.835938 1.359375 -1.5 1.359375 -1.09375 C 1.359375 -0.6875 1.257812 -0.34375 1.0625 -0.0625 C 0.875 0.207031 0.582031 0.414062 0.1875 0.5625 Z "/>
</symbol>
</g>
</defs>
<g id="surface36">
<g style="fill:rgb(23.137255%,50.980392%,96.470588%);fill-opacity:1;">
  <use xlink:href="#glyph0-1" x="30" y="23.389648"/>
  <use xlink:href="#glyph0-2" x="33" y="23.389648"/>
  <use xlink:href="#glyph0-3" x="36" y="23.389648"/>
  <use xlink:href="#glyph0-4" x="37" y="23.389648"/>
  <use xlink:href="#glyph0-5" x="40" y="23.389648"/>
  <use xlink:href="#glyph0-6" x="42" y="23.389648"/>
  <use xlink:href="#glyph0-7" x="44" y="23.389648"/>
  <use xlink:href="#glyph0-8" x="47" y="23.389648"/>
  <use xlink:href="#glyph0-3" x="49" y="23.389648"/>
  <use xlink:href="#glyph0-3" x="50" y="23.389648"/>
  <use xlink:href="#glyph0-9" x="51" y="23.389648"/>
  <use xlink:href="#glyph0-10" x="53" y="23.389648"/>
  <use xlink:href="#glyph0-11" x="55" y="23.389648"/>
  <use xlink:href="#glyph0-12" x="58" y="23.389648"/>
  <use xlink:href="#glyph0-12" x="59" y="23.389648"/>
  <use xlink:href="#glyph0-13" x="60" y="23.389648"/>
</g>
</g>
</svg>
