<?xml version="1.0" encoding="UTF-8"?>
<svg xmlns="http://www.w3.org/2000/svg" xmlns:xlink="http://www.w3.org/1999/xlink" width="1920pt" height="1080pt" viewBox="0 0 1920 1080" version="1.1">
<defs>
<g>
<symbol overflow="visible" id="glyph0-0">
<path style="stroke:none;" d="M 0.203125 0.734375 L 0.203125 -2.9375 L 2.296875 -2.9375 L 2.296875 0.734375 Z M 0.4375 0.5 L 2.0625 0.5 L 2.0625 -2.703125 L 0.4375 -2.703125 Z "/>
</symbol>
<symbol overflow="visible" id="glyph0-1">
<path style="stroke:none;" d="M 0.203125 0 L 0.203125 -0.25 L 0.578125 -0.25 L 0.578125 -2.796875 L 0.203125 -2.796875 L 0.203125 -3.046875 L 1.765625 -3.046875 L 1.765625 -2.796875 L 1.375 -2.796875 L 1.375 -0.25 L 1.765625 -0.25 L 1.765625 0 Z "/>
</symbol>
<symbol overflow="visible" id="glyph0-2">
<path style="stroke:none;" d="M 2.53125 -1.8125 C 2.632812 -1.957031 2.742188 -2.0625 2.859375 -2.125 C 2.972656 -2.1875 3.109375 -2.21875 3.265625 -2.21875 C 3.515625 -2.21875 3.703125 -2.144531 3.828125 -2 C 3.953125 -1.863281 4.015625 -1.65625 4.015625 -1.375 L 4.015625 -0.25 L 4.3125 -0.25 L 4.3125 0 L 3.03125 0 L 3.03125 -0.25 L 3.28125 -0.25 L 3.28125 -1.265625 C 3.28125 -1.535156 3.257812 -1.707031 3.21875 -1.78125 C 3.175781 -1.851562 3.101562 -1.890625 3 -1.890625 C 2.863281 -1.890625 2.757812 -1.835938 2.6875 -1.734375 C 2.625 -1.640625 2.59375 -1.5 2.59375 -1.3125 L 2.59375 -0.25 L 2.84375 -0.25 L 2.84375 0 L 1.609375 0 L 1.609375 -0.25 L 1.875 -0.25 L 1.875 -1.265625 C 1.875 -1.535156 1.851562 -1.707031 1.8125 -1.78125 C 1.769531 -1.851562 1.691406 -1.890625 1.578125 -1.890625 C 1.453125 -1.890625 1.351562 -1.835938 1.28125 -1.734375 C 1.207031 -1.640625 1.171875 -1.5 1.171875 -1.3125 L 1.171875 -0.25 L 1.4375 -0.25 L 1.4375 0 L 0.140625 0 L 0.140625 -0.25 L 0.453125 -0.25 L 0.453125 -1.921875 L 0.140625 -1.921875 L 0.140625 -2.171875 L 1.171875 -2.171875 L 1.171875 -1.859375 C 1.253906 -1.984375 1.347656 -2.070312 1.453125 -2.125 C 1.566406 -2.1875 1.695312 -2.21875 1.84375 -2.21875 C 2.019531 -2.21875 2.160156 -2.179688 2.265625 -2.109375 C 2.378906 -2.046875 2.46875 -1.945312 2.53125 -1.8125 Z "/>
</symbol>
<symbol overflow="visible" id="glyph0-3">
<path style="stroke:none;" d="M 1.125 -1.1875 L 1.125 -0.96875 C 1.125 -0.71875 1.15625 -0.535156 1.21875 -0.421875 C 1.28125 -0.316406 1.382812 -0.265625 1.53125 -0.265625 C 1.6875 -0.265625 1.789062 -0.320312 1.84375 -0.4375 C 1.90625 -0.5625 1.9375 -0.773438 1.9375 -1.078125 C 1.9375 -1.390625 1.90625 -1.601562 1.84375 -1.71875 C 1.789062 -1.84375 1.6875 -1.90625 1.53125 -1.90625 C 1.382812 -1.90625 1.28125 -1.847656 1.21875 -1.734375 C 1.15625 -1.617188 1.125 -1.4375 1.125 -1.1875 Z M 0.40625 -1.921875 L 0.09375 -1.921875 L 0.09375 -2.171875 L 1.125 -2.171875 L 1.125 -1.890625 C 1.1875 -2.003906 1.269531 -2.085938 1.375 -2.140625 C 1.476562 -2.191406 1.601562 -2.21875 1.75 -2.21875 C 2.0625 -2.21875 2.304688 -2.113281 2.484375 -1.90625 C 2.660156 -1.707031 2.75 -1.429688 2.75 -1.078125 C 2.75 -0.722656 2.660156 -0.441406 2.484375 -0.234375 C 2.304688 -0.0351562 2.0625 0.0625 1.75 0.0625 C 1.601562 0.0625 1.476562 0.0351562 1.375 -0.015625 C 1.269531 -0.078125 1.1875 -0.164062 1.125 -0.28125 L 1.125 0.625 L 1.453125 0.625 L 1.453125 0.875 L 0.09375 0.875 L 0.09375 0.625 L 0.40625 0.625 Z "/>
</symbol>
<symbol overflow="visible" id="glyph0-4">
<path style="stroke:none;" d="M 2.234375 -2.1875 L 2.234375 -1.546875 L 2.015625 -1.546875 C 2.003906 -1.660156 1.96875 -1.742188 1.90625 -1.796875 C 1.851562 -1.859375 1.78125 -1.890625 1.6875 -1.890625 C 1.519531 -1.890625 1.390625 -1.816406 1.296875 -1.671875 C 1.210938 -1.535156 1.171875 -1.347656 1.171875 -1.109375 L 1.171875 -0.25 L 1.5625 -0.25 L 1.5625 0 L 0.140625 0 L 0.140625 -0.25 L 0.453125 -0.25 L 0.453125 -1.921875 L 0.125 -1.921875 L 0.125 -2.171875 L 1.171875 -2.171875 L 1.171875 -1.78125 C 1.242188 -1.925781 1.335938 -2.035156 1.453125 -2.109375 C 1.566406 -2.179688 1.707031 -2.21875 1.875 -2.21875 C 1.914062 -2.21875 1.96875 -2.210938 2.03125 -2.203125 C 2.09375 -2.203125 2.160156 -2.195312 2.234375 -2.1875 Z "/>
</symbol>
<symbol overflow="visible" id="glyph0-5">
<path style="stroke:none;" d="M 1.390625 -0.171875 C 1.546875 -0.171875 1.65625 -0.234375 1.71875 -0.359375 C 1.78125 -0.492188 1.8125 -0.734375 1.8125 -1.078125 C 1.8125 -1.429688 1.78125 -1.671875 1.71875 -1.796875 C 1.65625 -1.929688 1.546875 -2 1.390625 -2 C 1.234375 -2 1.125 -1.929688 1.0625 -1.796875 C 1 -1.660156 0.96875 -1.421875 0.96875 -1.078125 C 0.96875 -0.734375 1 -0.492188 1.0625 -0.359375 C 1.125 -0.234375 1.234375 -0.171875 1.390625 -0.171875 Z M 1.390625 0.0625 C 1.015625 0.0625 0.71875 -0.0351562 0.5 -0.234375 C 0.28125 -0.441406 0.171875 -0.722656 0.171875 -1.078125 C 0.171875 -1.441406 0.28125 -1.722656 0.5 -1.921875 C 0.71875 -2.117188 1.015625 -2.21875 1.390625 -2.21875 C 1.773438 -2.21875 2.070312 -2.117188 2.28125 -1.921875 C 2.5 -1.722656 2.609375 -1.441406 2.609375 -1.078125 C 2.609375 -0.722656 2.5 -0.441406 2.28125 -0.234375 C 2.070312 -0.0351562 1.773438 0.0625 1.390625 0.0625 Z "/>
</symbol>
<symbol overflow="visible" id="glyph0-6">
<path style="stroke:none;" d="M 0.9375 0 L 0.15625 -1.921875 L -0.078125 -1.921875 L -0.078125 -2.171875 L 1.171875 -2.171875 L 1.171875 -1.921875 L 0.90625 -1.921875 L 1.453125 -0.546875 L 2 -1.921875 L 1.71875 -1.921875 L 1.71875 -2.171875 L 2.53125 -2.171875 L 2.53125 -1.921875 L 2.28125 -1.921875 L 1.515625 0 Z "/>
</symbol>
<symbol overflow="visible" id="glyph0-7">
<path style="stroke:none;" d="M 1.671875 -1.21875 C 1.671875 -1.507812 1.644531 -1.710938 1.59375 -1.828125 C 1.539062 -1.941406 1.453125 -2 1.328125 -2 C 1.203125 -2 1.109375 -1.941406 1.046875 -1.828125 C 0.992188 -1.710938 0.96875 -1.523438 0.96875 -1.265625 L 0.96875 -1.21875 Z M 2.46875 -0.984375 L 0.96875 -0.984375 L 0.96875 -0.96875 C 0.96875 -0.6875 1.007812 -0.484375 1.09375 -0.359375 C 1.1875 -0.234375 1.328125 -0.171875 1.515625 -0.171875 C 1.671875 -0.171875 1.796875 -0.210938 1.890625 -0.296875 C 1.984375 -0.378906 2.046875 -0.5 2.078125 -0.65625 L 2.40625 -0.65625 C 2.351562 -0.40625 2.238281 -0.222656 2.0625 -0.109375 C 1.882812 0.00390625 1.640625 0.0625 1.328125 0.0625 C 0.953125 0.0625 0.664062 -0.0351562 0.46875 -0.234375 C 0.269531 -0.429688 0.171875 -0.710938 0.171875 -1.078125 C 0.171875 -1.441406 0.269531 -1.722656 0.46875 -1.921875 C 0.675781 -2.117188 0.960938 -2.21875 1.328125 -2.21875 C 1.691406 -2.21875 1.96875 -2.113281 2.15625 -1.90625 C 2.351562 -1.695312 2.457031 -1.390625 2.46875 -0.984375 Z "/>
</symbol>
<symbol overflow="visible" id="glyph0-8">
<path style="stroke:none;" d="M 0.140625 0 L 0.140625 -0.25 L 0.453125 -0.25 L 0.453125 -1.921875 L 0.140625 -1.921875 L 0.140625 -2.171875 L 1.171875 -2.171875 L 1.171875 -1.859375 C 1.253906 -1.984375 1.351562 -2.070312 1.46875 -2.125 C 1.582031 -2.1875 1.722656 -2.21875 1.890625 -2.21875 C 2.128906 -2.21875 2.3125 -2.144531 2.4375 -2 C 2.5625 -1.863281 2.625 -1.65625 2.625 -1.375 L 2.625 -0.25 L 2.9375 -0.25 L 2.9375 0 L 1.640625 0 L 1.640625 -0.25 L 1.90625 -0.25 L 1.90625 -1.390625 C 1.90625 -1.578125 1.878906 -1.707031 1.828125 -1.78125 C 1.785156 -1.851562 1.707031 -1.890625 1.59375 -1.890625 C 1.445312 -1.890625 1.335938 -1.832031 1.265625 -1.71875 C 1.203125 -1.613281 1.171875 -1.445312 1.171875 -1.21875 L 1.171875 -0.25 L 1.4375 -0.25 L 1.4375 0 Z "/>
</symbol>
<symbol overflow="visible" id="glyph0-9">
<path style="stroke:none;" d="M 0.40625 -1.921875 L 0.09375 -1.921875 L 0.09375 -2.171875 L 0.40625 -2.171875 L 0.40625 -2.84375 L 1.140625 -2.84375 L 1.140625 -2.171875 L 1.734375 -2.171875 L 1.734375 -1.921875 L 1.140625 -1.921875 L 1.140625 -0.59375 C 1.140625 -0.40625 1.148438 -0.285156 1.171875 -0.234375 C 1.203125 -0.191406 1.257812 -0.171875 1.34375 -0.171875 C 1.425781 -0.171875 1.488281 -0.195312 1.53125 -0.25 C 1.570312 -0.3125 1.597656 -0.40625 1.609375 -0.53125 L 1.90625 -0.53125 C 1.894531 -0.3125 1.832031 -0.15625 1.71875 -0.0625 C 1.613281 0.0195312 1.429688 0.0625 1.171875 0.0625 C 0.878906 0.0625 0.675781 0.015625 0.5625 -0.078125 C 0.457031 -0.171875 0.40625 -0.34375 0.40625 -0.59375 Z "/>
</symbol>
<symbol overflow="visible" id="glyph0-10">
<path style="stroke:none;" d="M 0.390625 -1.65625 C 0.390625 -1.757812 0.425781 -1.847656 0.5 -1.921875 C 0.570312 -2.003906 0.660156 -2.046875 0.765625 -2.046875 C 0.867188 -2.046875 0.957031 -2.003906 1.03125 -1.921875 C 1.113281 -1.847656 1.15625 -1.757812 1.15625 -1.65625 C 1.15625 -1.550781 1.113281 -1.457031 1.03125 -1.375 C 0.957031 -1.300781 0.867188 -1.265625 0.765625 -1.265625 C 0.660156 -1.265625 0.570312 -1.300781 0.5 -1.375 C 0.425781 -1.457031 0.390625 -1.550781 0.390625 -1.65625 Z M 0.390625 -0.328125 C 0.390625 -0.429688 0.425781 -0.519531 0.5 -0.59375 C 0.570312 -0.675781 0.660156 -0.71875 0.765625 -0.71875 C 0.867188 -0.71875 0.957031 -0.675781 1.03125 -0.59375 C 1.113281 -0.519531 1.15625 -0.429688 1.15625 -0.328125 C 1.15625 -0.222656 1.113281 -0.128906 1.03125 -0.046875 C 0.957031 0.0234375 0.867188 0.0625 0.765625 0.0625 C 0.660156 0.0625 0.570312 0.0234375 0.5 -0.046875 C 0.425781 -0.128906 0.390625 -0.222656 0.390625 -0.328125 Z "/>
</symbol>
<symbol overflow="visible" id="glyph0-11">
<path style="stroke:none;" d=""/>
</symbol>
<symbol overflow="visible" id="glyph0-12">
<path style="stroke:none;" d="M 3.09375 0 L 0.125 0 L 1.359375 -3.046875 L 1.84375 -3.046875 Z M 0.515625 -0.25 L 2.15625 -0.25 L 1.34375 -2.28125 Z "/>
</symbol>
<symbol overflow="visible" id="glyph0-13">
<path style="stroke:none;" d="M 0.4375 -1.078125 L 3.046875 -1.078125 L 3.046875 -0.609375 L 0.4375 -0.609375 Z M 0.4375 -2 L 3.046875 -2 L 3.046875 -1.546875 L 0.4375 -1.546875 Z "/>
</symbol>
<symbol overflow="visible" id="glyph0-14">
<path style="stroke:none;" d="M 0.4375 -1.546875 L 3.046875 -1.546875 L 3.046875 -1.078125 L 0.4375 -1.078125 Z "/>
</symbol>
<symbol overflow="visible" id="glyph0-15">
<path style="stroke:none;" d="M 1.453125 -0.171875 C 1.617188 -0.171875 1.726562 -0.242188 1.78125 -0.390625 C 1.84375 -0.546875 1.875 -0.921875 1.875 -1.515625 C 1.875 -2.109375 1.84375 -2.476562 1.78125 -2.625 C 1.726562 -2.78125 1.617188 -2.859375 1.453125 -2.859375 C 1.285156 -2.859375 1.171875 -2.78125 1.109375 -2.625 C 1.054688 -2.476562 1.03125 -2.109375 1.03125 -1.515625 C 1.03125 -0.921875 1.054688 -0.546875 1.109375 -0.390625 C 1.171875 -0.242188 1.285156 -0.171875 1.453125 -0.171875 Z M 1.453125 0.0625 C 1.046875 0.0625 0.734375 -0.0703125 0.515625 -0.34375 C 0.304688 -0.613281 0.203125 -1.003906 0.203125 -1.515625 C 0.203125 -2.023438 0.304688 -2.414062 0.515625 -2.6875 C 0.734375 -2.957031 1.046875 -3.09375 1.453125 -3.09375 C 1.859375 -3.09375 2.164062 -2.957031 2.375 -2.6875 C 2.59375 -2.414062 2.703125 -2.023438 2.703125 -1.515625 C 2.703125 -1.003906 2.59375 -0.613281 2.375 -0.34375 C 2.164062 -0.0703125 1.859375 0.0625 1.453125 0.0625 Z "/>
</symbol>
<symbol overflow="visible" id="glyph0-16">
<path style="stroke:none;" d="M 0.34375 -0.328125 C 0.34375 -0.429688 0.378906 -0.519531 0.453125 -0.59375 C 0.523438 -0.675781 0.613281 -0.71875 0.71875 -0.71875 C 0.832031 -0.71875 0.925781 -0.675781 1 -0.59375 C 1.070312 -0.519531 1.109375 -0.429688 1.109375 -0.328125 C 1.109375 -0.222656 1.070312 -0.128906 1 -0.046875 C 0.925781 0.0234375 0.832031 0.0625 0.71875 0.0625 C 0.613281 0.0625 0.523438 0.0234375 0.453125 -0.046875 C 0.378906 -0.128906 0.34375 -0.222656 0.34375 -0.328125 Z "/>
</symbol>
<symbol overflow="visible" id="glyph0-17">
<path style="stroke:none;" d="M 1.03125 -1.796875 C 1.113281 -1.867188 1.207031 -1.921875 1.3125 -1.953125 C 1.425781 -1.992188 1.550781 -2.015625 1.6875 -2.015625 C 1.988281 -2.015625 2.226562 -1.921875 2.40625 -1.734375 C 2.582031 -1.554688 2.671875 -1.304688 2.671875 -0.984375 C 2.671875 -0.648438 2.570312 -0.390625 2.375 -0.203125 C 2.175781 -0.0234375 1.894531 0.0625 1.53125 0.0625 C 1.113281 0.0625 0.796875 -0.0625 0.578125 -0.3125 C 0.367188 -0.5625 0.265625 -0.929688 0.265625 -1.421875 C 0.265625 -1.972656 0.378906 -2.390625 0.609375 -2.671875 C 0.847656 -2.953125 1.203125 -3.09375 1.671875 -3.09375 C 1.796875 -3.09375 1.925781 -3.082031 2.0625 -3.0625 C 2.207031 -3.039062 2.359375 -3.007812 2.515625 -2.96875 L 2.515625 -2.4375 L 2.265625 -2.4375 C 2.234375 -2.570312 2.171875 -2.675781 2.078125 -2.75 C 1.984375 -2.820312 1.863281 -2.859375 1.71875 -2.859375 C 1.476562 -2.859375 1.300781 -2.773438 1.1875 -2.609375 C 1.082031 -2.441406 1.03125 -2.171875 1.03125 -1.796875 Z M 1.484375 -0.171875 C 1.617188 -0.171875 1.71875 -0.226562 1.78125 -0.34375 C 1.84375 -0.46875 1.875 -0.675781 1.875 -0.96875 C 1.875 -1.269531 1.84375 -1.476562 1.78125 -1.59375 C 1.71875 -1.707031 1.617188 -1.765625 1.484375 -1.765625 C 1.335938 -1.765625 1.234375 -1.707031 1.171875 -1.59375 C 1.117188 -1.476562 1.09375 -1.269531 1.09375 -0.96875 C 1.09375 -0.675781 1.117188 -0.46875 1.171875 -0.34375 C 1.234375 -0.226562 1.335938 -0.171875 1.484375 -0.171875 Z "/>
</symbol>
<symbol overflow="visible" id="glyph0-18">
<path style="stroke:none;" d="M 1.421875 -2.859375 C 1.285156 -2.859375 1.1875 -2.796875 1.125 -2.671875 C 1.0625 -2.554688 1.03125 -2.351562 1.03125 -2.0625 C 1.03125 -1.769531 1.0625 -1.5625 1.125 -1.4375 C 1.1875 -1.320312 1.285156 -1.265625 1.421875 -1.265625 C 1.554688 -1.265625 1.65625 -1.320312 1.71875 -1.4375 C 1.78125 -1.5625 1.8125 -1.769531 1.8125 -2.0625 C 1.8125 -2.351562 1.78125 -2.554688 1.71875 -2.671875 C 1.65625 -2.796875 1.554688 -2.859375 1.421875 -2.859375 Z M 1.875 -1.234375 C 1.78125 -1.160156 1.675781 -1.101562 1.5625 -1.0625 C 1.457031 -1.03125 1.34375 -1.015625 1.21875 -1.015625 C 0.90625 -1.015625 0.660156 -1.101562 0.484375 -1.28125 C 0.304688 -1.46875 0.21875 -1.722656 0.21875 -2.046875 C 0.21875 -2.378906 0.316406 -2.632812 0.515625 -2.8125 C 0.722656 -3 1.007812 -3.09375 1.375 -3.09375 C 1.789062 -3.09375 2.101562 -2.96875 2.3125 -2.71875 C 2.53125 -2.46875 2.640625 -2.097656 2.640625 -1.609375 C 2.640625 -1.054688 2.519531 -0.640625 2.28125 -0.359375 C 2.039062 -0.078125 1.6875 0.0625 1.21875 0.0625 C 1.101562 0.0625 0.972656 0.0507812 0.828125 0.03125 C 0.691406 0.0078125 0.546875 -0.0195312 0.390625 -0.0625 L 0.390625 -0.59375 L 0.625 -0.59375 C 0.664062 -0.457031 0.734375 -0.351562 0.828125 -0.28125 C 0.921875 -0.207031 1.039062 -0.171875 1.1875 -0.171875 C 1.425781 -0.171875 1.597656 -0.253906 1.703125 -0.421875 C 1.816406 -0.585938 1.875 -0.859375 1.875 -1.234375 Z "/>
</symbol>
<symbol overflow="visible" id="glyph0-19">
<path style="stroke:none;" d="M 2.296875 -1.328125 L 2.296875 -0.25 L 2.609375 -0.25 L 2.609375 0 L 1.578125 0 L 1.578125 -0.28125 C 1.484375 -0.164062 1.375 -0.078125 1.25 -0.015625 C 1.132812 0.0351562 1.003906 0.0625 0.859375 0.0625 C 0.640625 0.0625 0.46875 0.00390625 0.34375 -0.109375 C 0.226562 -0.234375 0.171875 -0.40625 0.171875 -0.625 C 0.171875 -0.875 0.253906 -1.054688 0.421875 -1.171875 C 0.597656 -1.296875 0.859375 -1.359375 1.203125 -1.359375 L 1.578125 -1.359375 L 1.578125 -1.484375 C 1.578125 -1.660156 1.535156 -1.789062 1.453125 -1.875 C 1.367188 -1.957031 1.238281 -2 1.0625 -2 C 0.914062 -2 0.804688 -1.96875 0.734375 -1.90625 C 0.660156 -1.851562 0.601562 -1.757812 0.5625 -1.625 L 0.34375 -1.625 L 0.34375 -2.09375 C 0.46875 -2.132812 0.597656 -2.164062 0.734375 -2.1875 C 0.878906 -2.207031 1.023438 -2.21875 1.171875 -2.21875 C 1.566406 -2.21875 1.851562 -2.144531 2.03125 -2 C 2.207031 -1.863281 2.296875 -1.640625 2.296875 -1.328125 Z M 1.578125 -0.6875 L 1.578125 -1.109375 L 1.3125 -1.109375 C 1.175781 -1.109375 1.070312 -1.070312 1 -1 C 0.925781 -0.925781 0.890625 -0.820312 0.890625 -0.6875 C 0.890625 -0.550781 0.914062 -0.445312 0.96875 -0.375 C 1.019531 -0.3125 1.097656 -0.28125 1.203125 -0.28125 C 1.316406 -0.28125 1.40625 -0.316406 1.46875 -0.390625 C 1.539062 -0.460938 1.578125 -0.5625 1.578125 -0.6875 Z "/>
</symbol>
<symbol overflow="visible" id="glyph0-20">
<path style="stroke:none;" d="M 0.203125 -0.0625 L 0.203125 -0.671875 L 0.421875 -0.671875 C 0.441406 -0.503906 0.503906 -0.378906 0.609375 -0.296875 C 0.710938 -0.210938 0.847656 -0.171875 1.015625 -0.171875 C 1.171875 -0.171875 1.285156 -0.195312 1.359375 -0.25 C 1.441406 -0.300781 1.484375 -0.375 1.484375 -0.46875 C 1.484375 -0.550781 1.457031 -0.613281 1.40625 -0.65625 C 1.351562 -0.707031 1.253906 -0.753906 1.109375 -0.796875 L 0.8125 -0.875 C 0.59375 -0.925781 0.429688 -1.003906 0.328125 -1.109375 C 0.222656 -1.210938 0.171875 -1.351562 0.171875 -1.53125 C 0.171875 -1.757812 0.253906 -1.929688 0.421875 -2.046875 C 0.585938 -2.160156 0.835938 -2.21875 1.171875 -2.21875 C 1.304688 -2.21875 1.441406 -2.207031 1.578125 -2.1875 C 1.722656 -2.164062 1.882812 -2.132812 2.0625 -2.09375 L 2.0625 -1.546875 L 1.828125 -1.546875 C 1.816406 -1.691406 1.765625 -1.800781 1.671875 -1.875 C 1.578125 -1.957031 1.445312 -2 1.28125 -2 C 1.132812 -2 1.019531 -1.972656 0.9375 -1.921875 C 0.863281 -1.878906 0.828125 -1.8125 0.828125 -1.71875 C 0.828125 -1.644531 0.847656 -1.585938 0.890625 -1.546875 C 0.941406 -1.503906 1.019531 -1.46875 1.125 -1.4375 L 1.421875 -1.359375 C 1.710938 -1.285156 1.910156 -1.195312 2.015625 -1.09375 C 2.117188 -0.988281 2.171875 -0.84375 2.171875 -0.65625 C 2.171875 -0.414062 2.082031 -0.234375 1.90625 -0.109375 C 1.738281 0.00390625 1.472656 0.0625 1.109375 0.0625 C 0.972656 0.0625 0.828125 0.0507812 0.671875 0.03125 C 0.523438 0.0078125 0.367188 -0.0195312 0.203125 -0.0625 Z "/>
</symbol>
</g>
</defs>
<g id="surface46">
<g style="fill:rgb(1.960784%,58.823529%,41.176471%);fill-opacity:1;">
  <use xlink:href="#glyph0-1" x="30" y="23.913086"/>
  <use xlink:href="#glyph0-2" x="32" y="23.913086"/>
  <use xlink:href="#glyph0-3" x="36" y="23.913086"/>
  <use xlink:href="#glyph0-4" x="39" y="23.913086"/>
  <use xlink:href="#glyph0-5" x="41" y="23.913086"/>
  <use xlink:href="#glyph0-6" x="44" y="23.913086"/>
  <use xlink:href="#glyph0-7" x="46" y="23.913086"/>
  <use xlink:href="#glyph0-2" x="49" y="23.913086"/>
  <use xlink:href="#glyph0-7" x="53" y="23.913086"/>
  <use xlink:href="#glyph0-8" x="56" y="23.913086"/>
  <use xlink:href="#glyph0-9" x="59" y="23.913086"/>
  <use xlink:href="#glyph0-10" x="61" y="23.913086"/>
  <use xlink:href="#glyph0-11" x="63" y="23.913086"/>
  <use xlink:href="#glyph0-11" x="64" y="23.913086"/>
</g>
<g style="fill:rgb(1.960784%,58.823529%,41.176471%);fill-opacity:1;">
  <use xlink:href="#glyph0-12" x="65" y="23.913086"/>
  <use xlink:href="#glyph0-11" x="68" y="23.913086"/>
  <use xlink:href="#glyph0-13" x="69" y="23.913086"/>
  <use xlink:href="#glyph0-11" x="72" y="23.913086"/>
  <use xlink:href="#glyph0-14" x="73" y="23.913086"/>
  <use xlink:href="#glyph0-15" x="76" y="23.913086"/>
  <use xlink:href="#glyph0-16" x="79" y="23.913086"/>
  <use xlink:href="#glyph0-17" x="80" y="23.913086"/>
  <use xlink:href="#glyph0-18" x="83" y="23.913086"/>
  <use xlink:href="#glyph0-11" x="86" y="23.913086"/>
</g>
<g style="fill:rgb(1.960784%,58.823529%,41.176471%);fill-opacity:1;">
  <use xlink:href="#glyph0-8" x="87" y="23.913086"/>
  <use xlink:href="#glyph0-19" x="90" y="23.913086"/>
  <use xlink:href="#glyph0-9" x="93" y="23.913086"/>
  <use xlink:href="#glyph0-20" x="95" y="23.913086"/>
</g>
</g>
</svg>
