<?xml version="1.0" encoding="UTF-8"?>
<svg xmlns="http://www.w3.org/2000/svg" xmlns:xlink="http://www.w3.org/1999/xlink" width="1920pt" height="1080pt" viewBox="0 0 1920 1080" version="1.1">
<defs>
<g>
<symbol overflow="visible" id="glyph0-0">
<path style="stroke:none;" d="M 0.1875 0.640625 L 0.1875 -2.546875 L 1.984375 -2.546875 L 1.984375 0.640625 Z M 0.375 0.4375 L 1.78125 0.4375 L 1.78125 -2.34375 L 0.375 -2.34375 Z "/>
</symbol>
<symbol overflow="visible" id="glyph0-1">
<path style="stroke:none;" d="M 0.15625 -1.96875 L 0.46875 -1.96875 L 0.875 -0.4375 L 1.28125 -1.96875 L 1.671875 -1.96875 L 2.078125 -0.4375 L 2.46875 -1.96875 L 2.796875 -1.96875 L 2.28125 0 L 1.90625 0 L 1.484375 -1.625 L 1.046875 0 L 0.671875 0 Z "/>
</symbol>
<symbol overflow="visible" id="glyph0-2">
<path style="stroke:none;" d="M 1.234375 -1 C 0.972656 -1 0.789062 -0.96875 0.6875 -0.90625 C 0.59375 -0.84375 0.546875 -0.738281 0.546875 -0.59375 C 0.546875 -0.476562 0.582031 -0.382812 0.65625 -0.3125 C 0.726562 -0.25 0.832031 -0.21875 0.96875 -0.21875 C 1.144531 -0.21875 1.285156 -0.28125 1.390625 -0.40625 C 1.503906 -0.539062 1.5625 -0.710938 1.5625 -0.921875 L 1.5625 -1 Z M 1.890625 -1.125 L 1.890625 0 L 1.5625 0 L 1.5625 -0.296875 C 1.488281 -0.179688 1.394531 -0.09375 1.28125 -0.03125 C 1.175781 0.0195312 1.039062 0.046875 0.875 0.046875 C 0.675781 0.046875 0.515625 -0.00390625 0.390625 -0.109375 C 0.273438 -0.222656 0.21875 -0.378906 0.21875 -0.578125 C 0.21875 -0.796875 0.289062 -0.960938 0.4375 -1.078125 C 0.582031 -1.191406 0.804688 -1.25 1.109375 -1.25 L 1.5625 -1.25 L 1.5625 -1.28125 C 1.5625 -1.425781 1.507812 -1.539062 1.40625 -1.625 C 1.3125 -1.707031 1.175781 -1.75 1 -1.75 C 0.882812 -1.75 0.773438 -1.734375 0.671875 -1.703125 C 0.566406 -1.679688 0.460938 -1.640625 0.359375 -1.578125 L 0.359375 -1.890625 C 0.484375 -1.929688 0.597656 -1.960938 0.703125 -1.984375 C 0.816406 -2.003906 0.925781 -2.015625 1.03125 -2.015625 C 1.320312 -2.015625 1.535156 -1.941406 1.671875 -1.796875 C 1.816406 -1.648438 1.890625 -1.425781 1.890625 -1.125 Z "/>
</symbol>
<symbol overflow="visible" id="glyph0-3">
<path style="stroke:none;" d="M 1.59375 -1.921875 L 1.59375 -1.609375 C 1.507812 -1.648438 1.414062 -1.679688 1.3125 -1.703125 C 1.21875 -1.734375 1.113281 -1.75 1 -1.75 C 0.84375 -1.75 0.722656 -1.722656 0.640625 -1.671875 C 0.554688 -1.628906 0.515625 -1.554688 0.515625 -1.453125 C 0.515625 -1.378906 0.546875 -1.320312 0.609375 -1.28125 C 0.671875 -1.238281 0.785156 -1.195312 0.953125 -1.15625 L 1.0625 -1.125 C 1.289062 -1.082031 1.453125 -1.015625 1.546875 -0.921875 C 1.648438 -0.828125 1.703125 -0.703125 1.703125 -0.546875 C 1.703125 -0.359375 1.628906 -0.210938 1.484375 -0.109375 C 1.335938 -0.00390625 1.140625 0.046875 0.890625 0.046875 C 0.785156 0.046875 0.675781 0.0351562 0.5625 0.015625 C 0.445312 -0.00390625 0.328125 -0.0351562 0.203125 -0.078125 L 0.203125 -0.40625 C 0.316406 -0.34375 0.429688 -0.296875 0.546875 -0.265625 C 0.660156 -0.234375 0.773438 -0.21875 0.890625 -0.21875 C 1.046875 -0.21875 1.164062 -0.242188 1.25 -0.296875 C 1.332031 -0.347656 1.375 -0.421875 1.375 -0.515625 C 1.375 -0.609375 1.34375 -0.675781 1.28125 -0.71875 C 1.21875 -0.769531 1.085938 -0.816406 0.890625 -0.859375 L 0.78125 -0.890625 C 0.582031 -0.929688 0.4375 -0.992188 0.34375 -1.078125 C 0.25 -1.160156 0.203125 -1.28125 0.203125 -1.4375 C 0.203125 -1.625 0.269531 -1.765625 0.40625 -1.859375 C 0.539062 -1.960938 0.726562 -2.015625 0.96875 -2.015625 C 1.082031 -2.015625 1.191406 -2.003906 1.296875 -1.984375 C 1.410156 -1.972656 1.507812 -1.953125 1.59375 -1.921875 Z "/>
</symbol>
</g>
</defs>
<g id="surface241">
<g style="fill:rgb(10.196078%,10.196078%,10.196078%);fill-opacity:1;">
  <use xlink:href="#glyph0-1" x="30" y="23.351562"/>
  <use xlink:href="#glyph0-2" x="33" y="23.351562"/>
  <use xlink:href="#glyph0-3" x="35" y="23.351562"/>
</g>
</g>
</svg>
