<?xml version="1.0" encoding="UTF-8"?>
<svg xmlns="http://www.w3.org/2000/svg" xmlns:xlink="http://www.w3.org/1999/xlink" width="1920pt" height="1080pt" viewBox="0 0 1920 1080" version="1.1">
<defs>
<g>
<symbol overflow="visible" id="glyph0-0">
<path style="stroke:none;" d="M 0.171875 0.59375 L 0.171875 -2.34375 L 1.828125 -2.34375 L 1.828125 0.59375 Z M 0.359375 0.40625 L 1.640625 0.40625 L 1.640625 -2.15625 L 0.359375 -2.15625 Z "/>
</symbol>
<symbol overflow="visible" id="glyph0-1">
<path style="stroke:none;" d="M 0.578125 -0.171875 C 0.578125 -0.234375 0.597656 -0.285156 0.640625 -0.328125 C 0.679688 -0.367188 0.734375 -0.390625 0.796875 -0.390625 C 0.859375 -0.390625 0.910156 -0.367188 0.953125 -0.328125 C 0.992188 -0.285156 1.015625 -0.234375 1.015625 -0.171875 C 1.015625 -0.109375 0.992188 -0.0546875 0.953125 -0.015625 C 0.910156 0.0234375 0.859375 0.046875 0.796875 0.046875 C 0.734375 0.046875 0.679688 0.0234375 0.640625 -0.015625 C 0.597656 -0.0546875 0.578125 -0.109375 0.578125 -0.171875 Z M 0.21875 -2.3125 C 0.332031 -2.363281 0.441406 -2.398438 0.546875 -2.421875 C 0.648438 -2.453125 0.75 -2.46875 0.84375 -2.46875 C 1.082031 -2.46875 1.269531 -2.410156 1.40625 -2.296875 C 1.550781 -2.179688 1.625 -2.023438 1.625 -1.828125 C 1.625 -1.628906 1.5625 -1.460938 1.4375 -1.328125 C 1.320312 -1.203125 1.144531 -1.113281 0.90625 -1.0625 L 0.90625 -0.640625 L 0.703125 -0.640625 L 0.703125 -1.171875 C 0.890625 -1.222656 1.03125 -1.300781 1.125 -1.40625 C 1.226562 -1.519531 1.28125 -1.660156 1.28125 -1.828125 C 1.28125 -1.972656 1.238281 -2.085938 1.15625 -2.171875 C 1.082031 -2.265625 0.976562 -2.3125 0.84375 -2.3125 C 0.71875 -2.3125 0.613281 -2.273438 0.53125 -2.203125 C 0.457031 -2.128906 0.410156 -2.023438 0.390625 -1.890625 L 0.21875 -1.890625 Z "/>
</symbol>
</g>
</defs>
<g id="surface261">
<g style="fill:rgb(10.196078%,10.196078%,10.196078%);fill-opacity:1;">
  <use xlink:href="#glyph0-1" x="30" y="23.09375"/>
</g>
</g>
</svg>
