<?xml version="1.0" encoding="UTF-8"?>
<svg xmlns="http://www.w3.org/2000/svg" xmlns:xlink="http://www.w3.org/1999/xlink" width="1920pt" height="1080pt" viewBox="0 0 1920 1080" version="1.1">
<defs>
<g>
<symbol overflow="visible" id="glyph0-0">
<path style="stroke:none;" d="M 0.53125 1.859375 L 0.53125 -7.453125 L 5.8125 -7.453125 L 5.8125 1.859375 Z M 1.125 1.28125 L 5.21875 1.28125 L 5.21875 -6.859375 L 1.125 -6.859375 Z "/>
</symbol>
<symbol overflow="visible" id="glyph0-1">
<path style="stroke:none;" d="M 4.5625 0.15625 C 3.257812 0.132812 2.242188 -0.222656 1.515625 -0.921875 C 0.796875 -1.628906 0.4375 -2.601562 0.4375 -3.84375 C 0.4375 -5.082031 0.804688 -6.054688 1.546875 -6.765625 C 2.285156 -7.484375 3.300781 -7.84375 4.59375 -7.84375 C 5.894531 -7.84375 6.910156 -7.488281 7.640625 -6.78125 C 8.378906 -6.070312 8.75 -5.09375 8.75 -3.84375 C 8.75 -2.75 8.460938 -1.859375 7.890625 -1.171875 C 7.328125 -0.492188 6.523438 -0.078125 5.484375 0.078125 C 5.660156 0.273438 5.878906 0.414062 6.140625 0.5 C 6.410156 0.59375 6.75 0.640625 7.15625 0.640625 L 7.421875 0.640625 L 7.421875 1.90625 L 7.28125 1.90625 C 6.625 1.90625 6.078125 1.765625 5.640625 1.484375 C 5.203125 1.203125 4.84375 0.757812 4.5625 0.15625 Z M 4.59375 -0.46875 C 5.25 -0.46875 5.738281 -0.742188 6.0625 -1.296875 C 6.382812 -1.859375 6.546875 -2.707031 6.546875 -3.84375 C 6.546875 -4.976562 6.382812 -5.820312 6.0625 -6.375 C 5.738281 -6.9375 5.25 -7.21875 4.59375 -7.21875 C 3.9375 -7.21875 3.445312 -6.9375 3.125 -6.375 C 2.8125 -5.820312 2.65625 -4.976562 2.65625 -3.84375 C 2.65625 -2.71875 2.8125 -1.875 3.125 -1.3125 C 3.445312 -0.75 3.9375 -0.46875 4.59375 -0.46875 Z "/>
</symbol>
<symbol overflow="visible" id="glyph0-2">
<path style="stroke:none;" d="M 6.546875 -5.484375 L 6.546875 -0.625 L 7.3125 -0.625 L 7.3125 0 L 4.703125 0 L 4.703125 -0.78125 C 4.492188 -0.445312 4.242188 -0.207031 3.953125 -0.0625 C 3.671875 0.0820312 3.316406 0.15625 2.890625 0.15625 C 2.273438 0.15625 1.8125 -0.0234375 1.5 -0.390625 C 1.1875 -0.753906 1.03125 -1.289062 1.03125 -2 L 1.03125 -4.859375 L 0.25 -4.859375 L 0.25 -5.484375 L 2.859375 -5.484375 L 2.859375 -2.28125 C 2.859375 -1.601562 2.910156 -1.171875 3.015625 -0.984375 C 3.128906 -0.796875 3.335938 -0.703125 3.640625 -0.703125 C 4.015625 -0.703125 4.285156 -0.835938 4.453125 -1.109375 C 4.617188 -1.378906 4.703125 -1.8125 4.703125 -2.40625 L 4.703125 -4.859375 L 4.046875 -4.859375 L 4.046875 -5.484375 Z "/>
</symbol>
<symbol overflow="visible" id="glyph0-3">
<path style="stroke:none;" d="M 4.234375 -3.09375 C 4.234375 -3.8125 4.164062 -4.316406 4.03125 -4.609375 C 3.894531 -4.898438 3.664062 -5.046875 3.34375 -5.046875 C 3.03125 -5.046875 2.804688 -4.898438 2.671875 -4.609375 C 2.535156 -4.328125 2.46875 -3.851562 2.46875 -3.1875 L 2.46875 -3.09375 Z M 6.234375 -2.484375 L 2.46875 -2.484375 L 2.46875 -2.4375 C 2.46875 -1.726562 2.570312 -1.21875 2.78125 -0.90625 C 3 -0.59375 3.347656 -0.4375 3.828125 -0.4375 C 4.222656 -0.4375 4.539062 -0.539062 4.78125 -0.75 C 5.019531 -0.957031 5.175781 -1.257812 5.25 -1.65625 L 6.109375 -1.65625 C 5.960938 -1.039062 5.664062 -0.582031 5.21875 -0.28125 C 4.78125 0.0078125 4.164062 0.15625 3.375 0.15625 C 2.425781 0.15625 1.695312 -0.09375 1.1875 -0.59375 C 0.6875 -1.09375 0.4375 -1.8125 0.4375 -2.75 C 0.4375 -3.65625 0.691406 -4.359375 1.203125 -4.859375 C 1.722656 -5.367188 2.445312 -5.625 3.375 -5.625 C 4.28125 -5.625 4.972656 -5.359375 5.453125 -4.828125 C 5.941406 -4.296875 6.203125 -3.515625 6.234375 -2.484375 Z "/>
</symbol>
<symbol overflow="visible" id="glyph0-4">
<path style="stroke:none;" d="M 5.671875 -5.546875 L 5.671875 -3.90625 L 5.09375 -3.90625 C 5.070312 -4.195312 4.988281 -4.414062 4.84375 -4.5625 C 4.707031 -4.707031 4.507812 -4.78125 4.25 -4.78125 C 3.851562 -4.78125 3.539062 -4.601562 3.3125 -4.25 C 3.082031 -3.894531 2.96875 -3.410156 2.96875 -2.796875 L 2.96875 -0.625 L 3.96875 -0.625 L 3.96875 0 L 0.359375 0 L 0.359375 -0.625 L 1.140625 -0.625 L 1.140625 -4.859375 L 0.296875 -4.859375 L 0.296875 -5.484375 L 2.96875 -5.484375 L 2.96875 -4.5 C 3.144531 -4.882812 3.378906 -5.164062 3.671875 -5.34375 C 3.960938 -5.53125 4.320312 -5.625 4.75 -5.625 C 4.863281 -5.625 4.992188 -5.613281 5.140625 -5.59375 C 5.296875 -5.582031 5.472656 -5.566406 5.671875 -5.546875 Z "/>
</symbol>
<symbol overflow="visible" id="glyph0-5">
<path style="stroke:none;" d="M 3.296875 1.234375 C 3.128906 1.640625 2.925781 1.925781 2.6875 2.09375 C 2.457031 2.257812 2.144531 2.34375 1.75 2.34375 C 1.582031 2.34375 1.394531 2.320312 1.1875 2.28125 C 0.976562 2.25 0.753906 2.195312 0.515625 2.125 L 0.515625 0.984375 L 1.09375 0.984375 C 1.101562 1.242188 1.164062 1.4375 1.28125 1.5625 C 1.394531 1.695312 1.570312 1.765625 1.8125 1.765625 C 2.03125 1.765625 2.207031 1.703125 2.34375 1.578125 C 2.476562 1.453125 2.617188 1.222656 2.765625 0.890625 L 2.84375 0.703125 L 0.453125 -4.859375 L -0.140625 -4.859375 L -0.140625 -5.484375 L 3.015625 -5.484375 L 3.015625 -4.859375 L 2.375 -4.859375 L 3.765625 -1.609375 L 5.0625 -4.859375 L 4.328125 -4.859375 L 4.328125 -5.484375 L 6.390625 -5.484375 L 6.390625 -4.859375 L 5.71875 -4.859375 Z "/>
</symbol>
<symbol overflow="visible" id="glyph0-6">
<path style="stroke:none;" d=""/>
</symbol>
<symbol overflow="visible" id="glyph0-7">
<path style="stroke:none;" d="M 5.015625 -6.625 L 5.015625 -3.90625 L 7.734375 -3.90625 L 7.734375 -2.71875 L 5.015625 -2.71875 L 5.015625 -0.015625 L 3.828125 -0.015625 L 3.828125 -2.71875 L 1.125 -2.71875 L 1.125 -3.90625 L 3.828125 -3.90625 L 3.828125 -6.625 Z "/>
</symbol>
<symbol overflow="visible" id="glyph0-8">
<path style="stroke:none;" d="M 3.46875 -0.625 L 4.1875 -0.625 C 4.988281 -0.625 5.578125 -0.878906 5.953125 -1.390625 C 6.328125 -1.910156 6.515625 -2.734375 6.515625 -3.859375 C 6.515625 -4.972656 6.328125 -5.785156 5.953125 -6.296875 C 5.578125 -6.816406 4.988281 -7.078125 4.1875 -7.078125 L 3.46875 -7.078125 Z M 0.5 0 L 0.5 -0.625 L 1.484375 -0.625 L 1.484375 -7.078125 L 0.5 -7.078125 L 0.5 -7.703125 L 4.453125 -7.703125 C 5.828125 -7.703125 6.878906 -7.367188 7.609375 -6.703125 C 8.347656 -6.046875 8.71875 -5.097656 8.71875 -3.859375 C 8.71875 -2.609375 8.347656 -1.648438 7.609375 -0.984375 C 6.878906 -0.328125 5.828125 0 4.453125 0 Z "/>
</symbol>
<symbol overflow="visible" id="glyph0-9">
<path style="stroke:none;" d="M 3.53125 -0.4375 C 3.914062 -0.4375 4.1875 -0.597656 4.34375 -0.921875 C 4.5 -1.253906 4.578125 -1.863281 4.578125 -2.75 C 4.578125 -3.625 4.5 -4.222656 4.34375 -4.546875 C 4.1875 -4.878906 3.914062 -5.046875 3.53125 -5.046875 C 3.132812 -5.046875 2.859375 -4.878906 2.703125 -4.546875 C 2.546875 -4.210938 2.46875 -3.613281 2.46875 -2.75 C 2.46875 -1.875 2.546875 -1.269531 2.703125 -0.9375 C 2.859375 -0.601562 3.132812 -0.4375 3.53125 -0.4375 Z M 3.53125 0.15625 C 2.5625 0.15625 1.800781 -0.0976562 1.25 -0.609375 C 0.707031 -1.128906 0.4375 -1.84375 0.4375 -2.75 C 0.4375 -3.644531 0.707031 -4.347656 1.25 -4.859375 C 1.800781 -5.367188 2.5625 -5.625 3.53125 -5.625 C 4.5 -5.625 5.253906 -5.367188 5.796875 -4.859375 C 6.347656 -4.347656 6.625 -3.644531 6.625 -2.75 C 6.625 -1.84375 6.347656 -1.128906 5.796875 -0.609375 C 5.253906 -0.0976562 4.5 0.15625 3.53125 0.15625 Z "/>
</symbol>
<symbol overflow="visible" id="glyph0-10">
<path style="stroke:none;" d="M 5.953125 -1.71875 C 5.828125 -1.09375 5.5625 -0.625 5.15625 -0.3125 C 4.75 0 4.195312 0.15625 3.5 0.15625 C 2.53125 0.15625 1.773438 -0.09375 1.234375 -0.59375 C 0.703125 -1.101562 0.4375 -1.820312 0.4375 -2.75 C 0.4375 -3.65625 0.695312 -4.359375 1.21875 -4.859375 C 1.75 -5.367188 2.488281 -5.625 3.4375 -5.625 C 3.8125 -5.625 4.191406 -5.585938 4.578125 -5.515625 C 4.972656 -5.453125 5.375 -5.347656 5.78125 -5.203125 L 5.78125 -3.671875 L 5.203125 -3.671875 C 5.140625 -4.140625 5 -4.484375 4.78125 -4.703125 C 4.570312 -4.929688 4.269531 -5.046875 3.875 -5.046875 C 3.363281 -5.046875 3 -4.875 2.78125 -4.53125 C 2.570312 -4.1875 2.46875 -3.59375 2.46875 -2.75 C 2.46875 -1.914062 2.570312 -1.320312 2.78125 -0.96875 C 2.988281 -0.613281 3.332031 -0.4375 3.8125 -0.4375 C 4.175781 -0.4375 4.46875 -0.546875 4.6875 -0.765625 C 4.914062 -0.984375 5.050781 -1.300781 5.09375 -1.71875 Z "/>
</symbol>
<symbol overflow="visible" id="glyph0-11">
<path style="stroke:none;" d="M 6.40625 -4.578125 C 6.664062 -4.941406 6.941406 -5.207031 7.234375 -5.375 C 7.523438 -5.539062 7.867188 -5.625 8.265625 -5.625 C 8.898438 -5.625 9.375 -5.445312 9.6875 -5.09375 C 10 -4.738281 10.15625 -4.203125 10.15625 -3.484375 L 10.15625 -0.625 L 10.9375 -0.625 L 10.9375 0 L 7.671875 0 L 7.671875 -0.625 L 8.328125 -0.625 L 8.328125 -3.21875 C 8.328125 -3.894531 8.273438 -4.320312 8.171875 -4.5 C 8.066406 -4.6875 7.867188 -4.78125 7.578125 -4.78125 C 7.253906 -4.78125 7.003906 -4.65625 6.828125 -4.40625 C 6.648438 -4.15625 6.5625 -3.800781 6.5625 -3.34375 L 6.5625 -0.625 L 7.21875 -0.625 L 7.21875 0 L 4.078125 0 L 4.078125 -0.625 L 4.734375 -0.625 L 4.734375 -3.21875 C 4.734375 -3.894531 4.679688 -4.320312 4.578125 -4.5 C 4.472656 -4.6875 4.273438 -4.78125 3.984375 -4.78125 C 3.660156 -4.78125 3.410156 -4.65625 3.234375 -4.40625 C 3.054688 -4.15625 2.96875 -3.800781 2.96875 -3.34375 L 2.96875 -0.625 L 3.625 -0.625 L 3.625 0 L 0.359375 0 L 0.359375 -0.625 L 1.140625 -0.625 L 1.140625 -4.859375 L 0.359375 -4.859375 L 0.359375 -5.484375 L 2.96875 -5.484375 L 2.96875 -4.703125 C 3.175781 -5.023438 3.414062 -5.257812 3.6875 -5.40625 C 3.96875 -5.550781 4.296875 -5.625 4.671875 -5.625 C 5.117188 -5.625 5.484375 -5.539062 5.765625 -5.375 C 6.046875 -5.207031 6.257812 -4.941406 6.40625 -4.578125 Z "/>
</symbol>
<symbol overflow="visible" id="glyph0-12">
<path style="stroke:none;" d="M 0.359375 0 L 0.359375 -0.625 L 1.140625 -0.625 L 1.140625 -4.859375 L 0.359375 -4.859375 L 0.359375 -5.484375 L 2.96875 -5.484375 L 2.96875 -4.703125 C 3.1875 -5.035156 3.4375 -5.269531 3.71875 -5.40625 C 4 -5.550781 4.351562 -5.625 4.78125 -5.625 C 5.394531 -5.625 5.859375 -5.441406 6.171875 -5.078125 C 6.492188 -4.722656 6.65625 -4.191406 6.65625 -3.484375 L 6.65625 -0.625 L 7.4375 -0.625 L 7.4375 0 L 4.15625 0 L 4.15625 -0.625 L 4.828125 -0.625 L 4.828125 -3.53125 C 4.828125 -4 4.765625 -4.320312 4.640625 -4.5 C 4.523438 -4.6875 4.320312 -4.78125 4.03125 -4.78125 C 3.664062 -4.78125 3.394531 -4.644531 3.21875 -4.375 C 3.050781 -4.101562 2.96875 -3.671875 2.96875 -3.078125 L 2.96875 -0.625 L 3.640625 -0.625 L 3.640625 0 Z "/>
</symbol>
<symbol overflow="visible" id="glyph0-13">
<path style="stroke:none;" d="M 1.046875 -4.859375 L 0.25 -4.859375 L 0.25 -5.484375 L 1.046875 -5.484375 L 1.046875 -7.1875 L 2.875 -7.1875 L 2.875 -5.484375 L 4.390625 -5.484375 L 4.390625 -4.859375 L 2.875 -4.859375 L 2.875 -1.5 C 2.875 -1.019531 2.910156 -0.722656 2.984375 -0.609375 C 3.054688 -0.492188 3.195312 -0.4375 3.40625 -0.4375 C 3.625 -0.4375 3.785156 -0.507812 3.890625 -0.65625 C 3.992188 -0.800781 4.050781 -1.03125 4.0625 -1.34375 L 4.828125 -1.34375 C 4.796875 -0.789062 4.644531 -0.398438 4.375 -0.171875 C 4.101562 0.046875 3.640625 0.15625 2.984375 0.15625 C 2.222656 0.15625 1.707031 0.0351562 1.4375 -0.203125 C 1.175781 -0.441406 1.046875 -0.875 1.046875 -1.5 Z "/>
</symbol>
</g>
</defs>
<g id="surface38">
<g style="fill:rgb(10.196078%,10.196078%,10.196078%);fill-opacity:1;">
  <use xlink:href="#glyph0-1" x="30" y="29.911133"/>
  <use xlink:href="#glyph0-2" x="39" y="29.911133"/>
  <use xlink:href="#glyph0-3" x="47" y="29.911133"/>
  <use xlink:href="#glyph0-4" x="54" y="29.911133"/>
  <use xlink:href="#glyph0-5" x="60" y="29.911133"/>
  <use xlink:href="#glyph0-6" x="66" y="29.911133"/>
  <use xlink:href="#glyph0-7" x="70" y="29.911133"/>
  <use xlink:href="#glyph0-6" x="79" y="29.911133"/>
  <use xlink:href="#glyph0-8" x="83" y="29.911133"/>
  <use xlink:href="#glyph0-9" x="92" y="29.911133"/>
  <use xlink:href="#glyph0-10" x="99" y="29.911133"/>
  <use xlink:href="#glyph0-2" x="105" y="29.911133"/>
  <use xlink:href="#glyph0-11" x="113" y="29.911133"/>
  <use xlink:href="#glyph0-3" x="124" y="29.911133"/>
  <use xlink:href="#glyph0-12" x="131" y="29.911133"/>
  <use xlink:href="#glyph0-13" x="139" y="29.911133"/>
</g>
</g>
</svg>
