<?xml version="1.0" encoding="UTF-8"?>
<svg xmlns="http://www.w3.org/2000/svg" xmlns:xlink="http://www.w3.org/1999/xlink" width="1920pt" height="1080pt" viewBox="0 0 1920 1080" version="1.1">
<defs>
<g>
<symbol overflow="visible" id="glyph0-0">
<path style="stroke:none;" d="M 0.1875 0.6875 L 0.1875 -2.75 L 2.140625 -2.75 L 2.140625 0.6875 Z M 0.40625 0.46875 L 1.921875 0.46875 L 1.921875 -2.53125 L 0.40625 -2.53125 Z "/>
</symbol>
<symbol overflow="visible" id="glyph0-1">
<path style="stroke:none;" d="M 0.328125 -2.84375 L 1.3125 0.359375 L 0.984375 0.359375 L 0 -2.84375 Z "/>
</symbol>
<symbol overflow="visible" id="glyph0-2">
<path style="stroke:none;" d="M 2.140625 -1.28125 L 2.140625 0 L 1.78125 0 L 1.78125 -1.265625 C 1.78125 -1.472656 1.738281 -1.625 1.65625 -1.71875 C 1.582031 -1.820312 1.46875 -1.875 1.3125 -1.875 C 1.125 -1.875 0.972656 -1.8125 0.859375 -1.6875 C 0.753906 -1.570312 0.703125 -1.410156 0.703125 -1.203125 L 0.703125 0 L 0.359375 0 L 0.359375 -2.125 L 0.703125 -2.125 L 0.703125 -1.796875 C 0.785156 -1.921875 0.882812 -2.015625 1 -2.078125 C 1.113281 -2.140625 1.242188 -2.171875 1.390625 -2.171875 C 1.640625 -2.171875 1.828125 -2.09375 1.953125 -1.9375 C 2.078125 -1.789062 2.140625 -1.570312 2.140625 -1.28125 Z "/>
</symbol>
</g>
</defs>
<g id="surface51">
<g style="fill:rgb(10.196078%,10.196078%,10.196078%);fill-opacity:1;">
  <use xlink:href="#glyph0-1" x="30" y="23.610352"/>
  <use xlink:href="#glyph0-2" x="31" y="23.610352"/>
</g>
</g>
</svg>
