<?xml version="1.0" encoding="UTF-8"?>
<svg xmlns="http://www.w3.org/2000/svg" xmlns:xlink="http://www.w3.org/1999/xlink" width="1920pt" height="1080pt" viewBox="0 0 1920 1080" version="1.1">
<defs>
<g>
<symbol overflow="visible" id="glyph0-0">
<path style="stroke:none;" d="M 0.1875 0.6875 L 0.1875 -2.75 L 2.140625 -2.75 L 2.140625 0.6875 Z M 0.40625 0.46875 L 1.921875 0.46875 L 1.921875 -2.53125 L 0.40625 -2.53125 Z "/>
</symbol>
<symbol overflow="visible" id="glyph0-1">
<path style="stroke:none;" d="M 1.765625 -1.8125 L 1.765625 -2.953125 L 2.109375 -2.953125 L 2.109375 0 L 1.765625 0 L 1.765625 -0.3125 C 1.691406 -0.1875 1.597656 -0.09375 1.484375 -0.03125 C 1.367188 0.03125 1.234375 0.0625 1.078125 0.0625 C 0.828125 0.0625 0.617188 -0.0390625 0.453125 -0.25 C 0.296875 -0.457031 0.21875 -0.726562 0.21875 -1.0625 C 0.21875 -1.394531 0.296875 -1.660156 0.453125 -1.859375 C 0.617188 -2.066406 0.828125 -2.171875 1.078125 -2.171875 C 1.234375 -2.171875 1.367188 -2.140625 1.484375 -2.078125 C 1.597656 -2.023438 1.691406 -1.9375 1.765625 -1.8125 Z M 0.578125 -1.0625 C 0.578125 -0.800781 0.628906 -0.597656 0.734375 -0.453125 C 0.835938 -0.304688 0.984375 -0.234375 1.171875 -0.234375 C 1.359375 -0.234375 1.503906 -0.304688 1.609375 -0.453125 C 1.710938 -0.597656 1.765625 -0.800781 1.765625 -1.0625 C 1.765625 -1.320312 1.710938 -1.523438 1.609375 -1.671875 C 1.503906 -1.816406 1.359375 -1.890625 1.171875 -1.890625 C 0.984375 -1.890625 0.835938 -1.816406 0.734375 -1.671875 C 0.628906 -1.523438 0.578125 -1.320312 0.578125 -1.0625 Z "/>
</symbol>
<symbol overflow="visible" id="glyph0-2">
<path style="stroke:none;" d="M 1.328125 -1.0625 C 1.046875 -1.0625 0.847656 -1.03125 0.734375 -0.96875 C 0.628906 -0.90625 0.578125 -0.796875 0.578125 -0.640625 C 0.578125 -0.515625 0.617188 -0.414062 0.703125 -0.34375 C 0.785156 -0.269531 0.898438 -0.234375 1.046875 -0.234375 C 1.234375 -0.234375 1.382812 -0.300781 1.5 -0.4375 C 1.625 -0.582031 1.6875 -0.765625 1.6875 -0.984375 L 1.6875 -1.0625 Z M 2.03125 -1.21875 L 2.03125 0 L 1.6875 0 L 1.6875 -0.328125 C 1.601562 -0.191406 1.5 -0.09375 1.375 -0.03125 C 1.257812 0.03125 1.117188 0.0625 0.953125 0.0625 C 0.734375 0.0625 0.554688 0 0.421875 -0.125 C 0.296875 -0.25 0.234375 -0.414062 0.234375 -0.625 C 0.234375 -0.863281 0.3125 -1.039062 0.46875 -1.15625 C 0.632812 -1.28125 0.875 -1.34375 1.1875 -1.34375 L 1.6875 -1.34375 L 1.6875 -1.375 C 1.6875 -1.539062 1.628906 -1.664062 1.515625 -1.75 C 1.410156 -1.832031 1.265625 -1.875 1.078125 -1.875 C 0.953125 -1.875 0.832031 -1.859375 0.71875 -1.828125 C 0.601562 -1.804688 0.492188 -1.765625 0.390625 -1.703125 L 0.390625 -2.03125 C 0.515625 -2.082031 0.632812 -2.117188 0.75 -2.140625 C 0.875 -2.160156 0.992188 -2.171875 1.109375 -2.171875 C 1.421875 -2.171875 1.648438 -2.09375 1.796875 -1.9375 C 1.953125 -1.78125 2.03125 -1.539062 2.03125 -1.21875 Z "/>
</symbol>
<symbol overflow="visible" id="glyph0-3">
<path style="stroke:none;" d="M 0.71875 -2.734375 L 0.71875 -2.125 L 1.4375 -2.125 L 1.4375 -1.859375 L 0.71875 -1.859375 L 0.71875 -0.703125 C 0.71875 -0.523438 0.738281 -0.410156 0.78125 -0.359375 C 0.832031 -0.316406 0.929688 -0.296875 1.078125 -0.296875 L 1.4375 -0.296875 L 1.4375 0 L 1.078125 0 C 0.804688 0 0.617188 -0.046875 0.515625 -0.140625 C 0.410156 -0.242188 0.359375 -0.429688 0.359375 -0.703125 L 0.359375 -1.859375 L 0.109375 -1.859375 L 0.109375 -2.125 L 0.359375 -2.125 L 0.359375 -2.734375 Z "/>
</symbol>
</g>
</defs>
<g id="surface36">
<g style="fill:rgb(10.196078%,10.196078%,10.196078%);fill-opacity:1;">
  <use xlink:href="#glyph0-1" x="30" y="23.610352"/>
  <use xlink:href="#glyph0-2" x="32" y="23.610352"/>
  <use xlink:href="#glyph0-3" x="34" y="23.610352"/>
  <use xlink:href="#glyph0-2" x="36" y="23.610352"/>
</g>
</g>
</svg>
