<?xml version="1.0" encoding="UTF-8"?>
<svg xmlns="http://www.w3.org/2000/svg" xmlns:xlink="http://www.w3.org/1999/xlink" width="1920pt" height="1080pt" viewBox="0 0 1920 1080" version="1.1">
<defs>
<g>
<symbol overflow="visible" id="glyph0-0">
<path style="stroke:none;" d="M 0.1875 0.640625 L 0.1875 -2.546875 L 1.984375 -2.546875 L 1.984375 0.640625 Z M 0.375 0.4375 L 1.78125 0.4375 L 1.78125 -2.34375 L 0.375 -2.34375 Z "/>
</symbol>
<symbol overflow="visible" id="glyph0-1">
<path style="stroke:none;" d="M 0.359375 -2.625 L 2.015625 -2.625 L 2.015625 -2.328125 L 0.703125 -2.328125 L 0.703125 -1.546875 L 1.96875 -1.546875 L 1.96875 -1.25 L 0.703125 -1.25 L 0.703125 -0.296875 L 2.046875 -0.296875 L 2.046875 0 L 0.359375 0 Z "/>
</symbol>
<symbol overflow="visible" id="glyph0-2">
<path style="stroke:none;" d="M 1.984375 -1.96875 L 1.265625 -1.015625 L 2.015625 0 L 1.640625 0 L 1.0625 -0.78125 L 0.484375 0 L 0.109375 0 L 0.875 -1.03125 L 0.171875 -1.96875 L 0.546875 -1.96875 L 1.078125 -1.265625 L 1.59375 -1.96875 Z "/>
</symbol>
<symbol overflow="visible" id="glyph0-3">
<path style="stroke:none;" d="M 0.65625 -2.53125 L 0.65625 -1.96875 L 1.328125 -1.96875 L 1.328125 -1.71875 L 0.65625 -1.71875 L 0.65625 -0.65625 C 0.65625 -0.488281 0.675781 -0.378906 0.71875 -0.328125 C 0.769531 -0.285156 0.863281 -0.265625 1 -0.265625 L 1.328125 -0.265625 L 1.328125 0 L 1 0 C 0.75 0 0.570312 -0.046875 0.46875 -0.140625 C 0.375 -0.234375 0.328125 -0.40625 0.328125 -0.65625 L 0.328125 -1.71875 L 0.09375 -1.71875 L 0.09375 -1.96875 L 0.328125 -1.96875 L 0.328125 -2.53125 Z "/>
</symbol>
</g>
</defs>
<g id="surface96">
<g style="fill:rgb(10.196078%,10.196078%,10.196078%);fill-opacity:1;">
  <use xlink:href="#glyph0-1" x="30" y="23.351562"/>
  <use xlink:href="#glyph0-2" x="32" y="23.351562"/>
  <use xlink:href="#glyph0-3" x="34" y="23.351562"/>
</g>
</g>
</svg>
