<?xml version="1.0" encoding="UTF-8"?>
<svg xmlns="http://www.w3.org/2000/svg" xmlns:xlink="http://www.w3.org/1999/xlink" width="1920pt" height="1080pt" viewBox="0 0 1920 1080" version="1.1">
<defs>
<g>
<symbol overflow="visible" id="glyph0-0">
<path style="stroke:none;" d="M 0.1875 0.6875 L 0.1875 -2.75 L 2.140625 -2.75 L 2.140625 0.6875 Z M 0.40625 0.46875 L 1.921875 0.46875 L 1.921875 -2.53125 L 0.40625 -2.53125 Z "/>
</symbol>
<symbol overflow="visible" id="glyph0-1">
<path style="stroke:none;" d="M 0.96875 -0.203125 L 1.53125 -0.203125 C 1.757812 -0.203125 1.925781 -0.25 2.03125 -0.34375 C 2.132812 -0.445312 2.1875 -0.609375 2.1875 -0.828125 C 2.1875 -1.035156 2.132812 -1.1875 2.03125 -1.28125 C 1.925781 -1.382812 1.757812 -1.4375 1.53125 -1.4375 L 0.96875 -1.4375 Z M 0.96875 -1.640625 L 1.4375 -1.640625 C 1.644531 -1.640625 1.796875 -1.675781 1.890625 -1.75 C 1.992188 -1.832031 2.046875 -1.960938 2.046875 -2.140625 C 2.046875 -2.304688 1.992188 -2.429688 1.890625 -2.515625 C 1.796875 -2.597656 1.644531 -2.640625 1.4375 -2.640625 L 0.96875 -2.640625 Z M 0.21875 0 L 0.21875 -0.203125 L 0.578125 -0.203125 L 0.578125 -2.640625 L 0.21875 -2.640625 L 0.21875 -2.84375 L 1.609375 -2.84375 C 1.898438 -2.84375 2.117188 -2.78125 2.265625 -2.65625 C 2.410156 -2.539062 2.484375 -2.367188 2.484375 -2.140625 C 2.484375 -1.960938 2.429688 -1.820312 2.328125 -1.71875 C 2.222656 -1.625 2.078125 -1.566406 1.890625 -1.546875 C 2.128906 -1.515625 2.3125 -1.4375 2.4375 -1.3125 C 2.5625 -1.1875 2.625 -1.023438 2.625 -0.828125 C 2.625 -0.546875 2.535156 -0.335938 2.359375 -0.203125 C 2.179688 -0.0664062 1.90625 0 1.53125 0 Z "/>
</symbol>
<symbol overflow="visible" id="glyph0-2">
<path style="stroke:none;" d="M 1.59375 -0.140625 C 1.90625 -0.140625 2.140625 -0.242188 2.296875 -0.453125 C 2.453125 -0.671875 2.53125 -0.992188 2.53125 -1.421875 C 2.53125 -1.835938 2.453125 -2.148438 2.296875 -2.359375 C 2.140625 -2.578125 1.90625 -2.6875 1.59375 -2.6875 C 1.28125 -2.6875 1.046875 -2.578125 0.890625 -2.359375 C 0.734375 -2.148438 0.65625 -1.835938 0.65625 -1.421875 C 0.65625 -0.992188 0.734375 -0.671875 0.890625 -0.453125 C 1.046875 -0.242188 1.28125 -0.140625 1.59375 -0.140625 Z M 1.59375 0.0625 C 1.40625 0.0625 1.226562 0.03125 1.0625 -0.03125 C 0.90625 -0.101562 0.765625 -0.195312 0.640625 -0.3125 C 0.492188 -0.457031 0.382812 -0.617188 0.3125 -0.796875 C 0.25 -0.984375 0.21875 -1.191406 0.21875 -1.421875 C 0.21875 -1.648438 0.25 -1.851562 0.3125 -2.03125 C 0.382812 -2.207031 0.492188 -2.367188 0.640625 -2.515625 C 0.765625 -2.640625 0.90625 -2.734375 1.0625 -2.796875 C 1.21875 -2.859375 1.394531 -2.890625 1.59375 -2.890625 C 2.007812 -2.890625 2.34375 -2.753906 2.59375 -2.484375 C 2.84375 -2.210938 2.96875 -1.859375 2.96875 -1.421875 C 2.96875 -1.191406 2.929688 -0.984375 2.859375 -0.796875 C 2.796875 -0.617188 2.691406 -0.457031 2.546875 -0.3125 C 2.421875 -0.195312 2.28125 -0.101562 2.125 -0.03125 C 1.96875 0.03125 1.789062 0.0625 1.59375 0.0625 Z "/>
</symbol>
<symbol overflow="visible" id="glyph0-3">
<path style="stroke:none;" d="M 0.359375 -0.140625 L 0.359375 -0.78125 L 0.578125 -0.78125 C 0.585938 -0.5625 0.648438 -0.398438 0.765625 -0.296875 C 0.878906 -0.191406 1.0625 -0.140625 1.3125 -0.140625 C 1.53125 -0.140625 1.695312 -0.1875 1.8125 -0.28125 C 1.9375 -0.375 2 -0.503906 2 -0.671875 C 2 -0.804688 1.960938 -0.910156 1.890625 -0.984375 C 1.816406 -1.054688 1.664062 -1.128906 1.4375 -1.203125 L 1.0625 -1.3125 C 0.789062 -1.394531 0.597656 -1.5 0.484375 -1.625 C 0.378906 -1.75 0.328125 -1.914062 0.328125 -2.125 C 0.328125 -2.363281 0.410156 -2.550781 0.578125 -2.6875 C 0.753906 -2.820312 0.992188 -2.890625 1.296875 -2.890625 C 1.429688 -2.890625 1.578125 -2.875 1.734375 -2.84375 C 1.890625 -2.8125 2.054688 -2.769531 2.234375 -2.71875 L 2.234375 -2.109375 L 2.015625 -2.109375 C 1.992188 -2.316406 1.925781 -2.460938 1.8125 -2.546875 C 1.707031 -2.640625 1.539062 -2.6875 1.3125 -2.6875 C 1.113281 -2.6875 0.960938 -2.644531 0.859375 -2.5625 C 0.753906 -2.476562 0.703125 -2.359375 0.703125 -2.203125 C 0.703125 -2.066406 0.738281 -1.957031 0.8125 -1.875 C 0.894531 -1.800781 1.0625 -1.726562 1.3125 -1.65625 L 1.671875 -1.546875 C 1.921875 -1.472656 2.097656 -1.375 2.203125 -1.25 C 2.316406 -1.132812 2.375 -0.976562 2.375 -0.78125 C 2.375 -0.5 2.285156 -0.285156 2.109375 -0.140625 C 1.941406 -0.00390625 1.679688 0.0625 1.328125 0.0625 C 1.171875 0.0625 1.007812 0.0390625 0.84375 0 C 0.6875 -0.03125 0.523438 -0.078125 0.359375 -0.140625 Z "/>
</symbol>
</g>
</defs>
<g id="surface16">
<g style="fill:rgb(10.196078%,10.196078%,10.196078%);fill-opacity:1;">
  <use xlink:href="#glyph0-1" x="30" y="23.610352"/>
  <use xlink:href="#glyph0-2" x="33" y="23.610352"/>
  <use xlink:href="#glyph0-3" x="36" y="23.610352"/>
</g>
</g>
</svg>
