<?xml version="1.0" encoding="UTF-8"?>
<svg xmlns="http://www.w3.org/2000/svg" xmlns:xlink="http://www.w3.org/1999/xlink" width="1920pt" height="1080pt" viewBox="0 0 1920 1080" version="1.1">
<defs>
<g>
<symbol overflow="visible" id="glyph0-0">
<path style="stroke:none;" d="M 0.28125 0.984375 L 0.28125 -3.921875 L 3.0625 -3.921875 L 3.0625 0.984375 Z M 0.59375 0.671875 L 2.75 0.671875 L 2.75 -3.609375 L 0.59375 -3.609375 Z "/>
</symbol>
<symbol overflow="visible" id="glyph0-1">
<path style="stroke:none;" d="M 0.421875 -0.203125 L 0.421875 -1.15625 L 0.78125 -1.15625 C 0.832031 -0.851562 0.953125 -0.625 1.140625 -0.46875 C 1.335938 -0.320312 1.609375 -0.25 1.953125 -0.25 C 2.234375 -0.25 2.445312 -0.300781 2.59375 -0.40625 C 2.738281 -0.519531 2.8125 -0.675781 2.8125 -0.875 C 2.8125 -1.039062 2.757812 -1.164062 2.65625 -1.25 C 2.5625 -1.34375 2.359375 -1.429688 2.046875 -1.515625 L 1.4375 -1.65625 C 1.039062 -1.757812 0.757812 -1.898438 0.59375 -2.078125 C 0.4375 -2.265625 0.359375 -2.523438 0.359375 -2.859375 C 0.359375 -3.253906 0.492188 -3.5625 0.765625 -3.78125 C 1.035156 -4.007812 1.410156 -4.125 1.890625 -4.125 C 2.128906 -4.125 2.375 -4.101562 2.625 -4.0625 C 2.882812 -4.03125 3.148438 -3.972656 3.421875 -3.890625 L 3.421875 -3 L 3.078125 -3 C 3.023438 -3.269531 2.910156 -3.46875 2.734375 -3.59375 C 2.554688 -3.726562 2.304688 -3.796875 1.984375 -3.796875 C 1.710938 -3.796875 1.507812 -3.75 1.375 -3.65625 C 1.238281 -3.5625 1.171875 -3.425781 1.171875 -3.25 C 1.171875 -3.070312 1.21875 -2.941406 1.3125 -2.859375 C 1.40625 -2.773438 1.632812 -2.679688 2 -2.578125 L 2.609375 -2.4375 C 2.984375 -2.34375 3.253906 -2.195312 3.421875 -2 C 3.597656 -1.800781 3.6875 -1.523438 3.6875 -1.171875 C 3.6875 -0.765625 3.539062 -0.453125 3.25 -0.234375 C 2.96875 -0.0234375 2.554688 0.078125 2.015625 0.078125 C 1.742188 0.078125 1.476562 0.0507812 1.21875 0 C 0.957031 -0.0390625 0.691406 -0.109375 0.421875 -0.203125 Z "/>
</symbol>
<symbol overflow="visible" id="glyph0-2">
<path style="stroke:none;" d="M 1.9375 -0.234375 C 2.15625 -0.234375 2.300781 -0.332031 2.375 -0.53125 C 2.457031 -0.726562 2.5 -1.226562 2.5 -2.03125 C 2.5 -2.8125 2.457031 -3.300781 2.375 -3.5 C 2.300781 -3.707031 2.15625 -3.8125 1.9375 -3.8125 C 1.71875 -3.8125 1.566406 -3.710938 1.484375 -3.515625 C 1.410156 -3.316406 1.375 -2.820312 1.375 -2.03125 C 1.375 -1.226562 1.410156 -0.726562 1.484375 -0.53125 C 1.566406 -0.332031 1.71875 -0.234375 1.9375 -0.234375 Z M 1.9375 0.078125 C 1.394531 0.078125 0.976562 -0.0976562 0.6875 -0.453125 C 0.40625 -0.816406 0.265625 -1.34375 0.265625 -2.03125 C 0.265625 -2.707031 0.40625 -3.222656 0.6875 -3.578125 C 0.976562 -3.941406 1.394531 -4.125 1.9375 -4.125 C 2.476562 -4.125 2.890625 -3.941406 3.171875 -3.578125 C 3.460938 -3.222656 3.609375 -2.707031 3.609375 -2.03125 C 3.609375 -1.34375 3.460938 -0.816406 3.171875 -0.453125 C 2.890625 -0.0976562 2.476562 0.078125 1.9375 0.078125 Z "/>
</symbol>
</g>
</defs>
<g id="surface1">
<g style="fill:rgb(10.196078%,10.196078%,10.196078%);fill-opacity:1;">
  <use xlink:href="#glyph0-1" x="30" y="25.216797"/>
  <use xlink:href="#glyph0-2" x="34" y="25.216797"/>
</g>
</g>
</svg>
