<?xml version="1.0" encoding="UTF-8"?>
<svg xmlns="http://www.w3.org/2000/svg" xmlns:xlink="http://www.w3.org/1999/xlink" width="1920pt" height="1080pt" viewBox="0 0 1920 1080" version="1.1">
<defs>
<g>
<symbol overflow="visible" id="glyph0-0">
<path style="stroke:none;" d="M 0.25 0.890625 L 0.25 -3.53125 L 2.75 -3.53125 L 2.75 0.890625 Z M 0.53125 0.609375 L 2.46875 0.609375 L 2.46875 -3.25 L 0.53125 -3.25 Z "/>
</symbol>
<symbol overflow="visible" id="glyph0-1">
<path style="stroke:none;" d="M 2.15625 0.078125 C 1.539062 0.0664062 1.0625 -0.101562 0.71875 -0.4375 C 0.375 -0.769531 0.203125 -1.226562 0.203125 -1.8125 C 0.203125 -2.40625 0.375 -2.867188 0.71875 -3.203125 C 1.070312 -3.546875 1.554688 -3.71875 2.171875 -3.71875 C 2.785156 -3.71875 3.265625 -3.546875 3.609375 -3.203125 C 3.960938 -2.867188 4.140625 -2.40625 4.140625 -1.8125 C 4.140625 -1.300781 4.003906 -0.882812 3.734375 -0.5625 C 3.472656 -0.238281 3.09375 -0.0351562 2.59375 0.046875 C 2.675781 0.128906 2.78125 0.191406 2.90625 0.234375 C 3.03125 0.273438 3.191406 0.296875 3.390625 0.296875 L 3.515625 0.296875 L 3.515625 0.90625 L 3.4375 0.90625 C 3.132812 0.90625 2.878906 0.835938 2.671875 0.703125 C 2.460938 0.566406 2.289062 0.359375 2.15625 0.078125 Z M 2.171875 -0.21875 C 2.484375 -0.21875 2.710938 -0.347656 2.859375 -0.609375 C 3.015625 -0.878906 3.09375 -1.28125 3.09375 -1.8125 C 3.09375 -2.351562 3.015625 -2.753906 2.859375 -3.015625 C 2.710938 -3.285156 2.484375 -3.421875 2.171875 -3.421875 C 1.867188 -3.421875 1.640625 -3.285156 1.484375 -3.015625 C 1.328125 -2.753906 1.25 -2.351562 1.25 -1.8125 C 1.25 -1.28125 1.328125 -0.878906 1.484375 -0.609375 C 1.640625 -0.347656 1.867188 -0.21875 2.171875 -0.21875 Z "/>
</symbol>
<symbol overflow="visible" id="glyph0-2">
<path style="stroke:none;" d="M 1.234375 -2.15625 C 1.335938 -2.238281 1.453125 -2.300781 1.578125 -2.34375 C 1.710938 -2.394531 1.859375 -2.421875 2.015625 -2.421875 C 2.390625 -2.421875 2.679688 -2.3125 2.890625 -2.09375 C 3.097656 -1.875 3.203125 -1.570312 3.203125 -1.1875 C 3.203125 -0.789062 3.082031 -0.476562 2.84375 -0.25 C 2.613281 -0.03125 2.273438 0.078125 1.828125 0.078125 C 1.328125 0.078125 0.945312 -0.0703125 0.6875 -0.375 C 0.4375 -0.675781 0.3125 -1.117188 0.3125 -1.703125 C 0.3125 -2.367188 0.453125 -2.867188 0.734375 -3.203125 C 1.023438 -3.546875 1.453125 -3.71875 2.015625 -3.71875 C 2.160156 -3.71875 2.316406 -3.703125 2.484375 -3.671875 C 2.648438 -3.648438 2.828125 -3.613281 3.015625 -3.5625 L 3.015625 -2.921875 L 2.71875 -2.921875 C 2.675781 -3.085938 2.597656 -3.210938 2.484375 -3.296875 C 2.378906 -3.378906 2.238281 -3.421875 2.0625 -3.421875 C 1.769531 -3.421875 1.554688 -3.320312 1.421875 -3.125 C 1.296875 -2.925781 1.234375 -2.601562 1.234375 -2.15625 Z M 1.78125 -0.21875 C 1.945312 -0.21875 2.0625 -0.285156 2.125 -0.421875 C 2.195312 -0.566406 2.234375 -0.816406 2.234375 -1.171875 C 2.234375 -1.523438 2.195312 -1.769531 2.125 -1.90625 C 2.0625 -2.050781 1.945312 -2.125 1.78125 -2.125 C 1.613281 -2.125 1.492188 -2.050781 1.421875 -1.90625 C 1.347656 -1.769531 1.3125 -1.523438 1.3125 -1.171875 C 1.3125 -0.816406 1.347656 -0.566406 1.421875 -0.421875 C 1.492188 -0.285156 1.613281 -0.21875 1.78125 -0.21875 Z "/>
</symbol>
</g>
</defs>
<g id="surface11">
<g style="fill:rgb(10.196078%,10.196078%,10.196078%);fill-opacity:1;">
  <use xlink:href="#glyph0-1" x="30" y="24.695312"/>
  <use xlink:href="#glyph0-2" x="34" y="24.695312"/>
</g>
</g>
</svg>
