<?xml version="1.0" encoding="UTF-8"?>
<svg xmlns="http://www.w3.org/2000/svg" xmlns:xlink="http://www.w3.org/1999/xlink" width="1920pt" height="1080pt" viewBox="0 0 1920 1080" version="1.1">
<defs>
<g>
<symbol overflow="visible" id="glyph0-0">
<path style="stroke:none;" d="M 0.53125 1.859375 L 0.53125 -7.453125 L 5.8125 -7.453125 L 5.8125 1.859375 Z M 1.125 1.28125 L 5.21875 1.28125 L 5.21875 -6.859375 L 1.125 -6.859375 Z "/>
</symbol>
<symbol overflow="visible" id="glyph0-1">
<path style="stroke:none;" d="M 7.875 -2.203125 C 7.664062 -1.398438 7.296875 -0.804688 6.765625 -0.421875 C 6.242188 -0.0351562 5.539062 0.15625 4.65625 0.15625 C 3.351562 0.15625 2.320312 -0.203125 1.5625 -0.921875 C 0.8125 -1.640625 0.4375 -2.613281 0.4375 -3.84375 C 0.4375 -5.070312 0.8125 -6.046875 1.5625 -6.765625 C 2.320312 -7.484375 3.351562 -7.84375 4.65625 -7.84375 C 5.113281 -7.84375 5.585938 -7.785156 6.078125 -7.671875 C 6.578125 -7.566406 7.101562 -7.398438 7.65625 -7.171875 L 7.65625 -5.28125 L 7 -5.28125 C 6.863281 -5.925781 6.617188 -6.410156 6.265625 -6.734375 C 5.910156 -7.054688 5.445312 -7.21875 4.875 -7.21875 C 4.125 -7.21875 3.566406 -6.941406 3.203125 -6.390625 C 2.835938 -5.835938 2.65625 -4.988281 2.65625 -3.84375 C 2.65625 -2.695312 2.835938 -1.847656 3.203125 -1.296875 C 3.566406 -0.742188 4.125 -0.46875 4.875 -0.46875 C 5.382812 -0.46875 5.800781 -0.609375 6.125 -0.890625 C 6.457031 -1.179688 6.695312 -1.617188 6.84375 -2.203125 Z "/>
</symbol>
<symbol overflow="visible" id="glyph0-2">
<path style="stroke:none;" d="M 5.8125 -3.375 L 5.8125 -0.625 L 6.609375 -0.625 L 6.609375 0 L 3.984375 0 L 3.984375 -0.703125 C 3.742188 -0.410156 3.476562 -0.191406 3.1875 -0.046875 C 2.894531 0.0859375 2.554688 0.15625 2.171875 0.15625 C 1.609375 0.15625 1.175781 0.00390625 0.875 -0.296875 C 0.582031 -0.597656 0.4375 -1.03125 0.4375 -1.59375 C 0.4375 -2.207031 0.648438 -2.664062 1.078125 -2.96875 C 1.515625 -3.28125 2.164062 -3.4375 3.03125 -3.4375 L 3.984375 -3.4375 L 3.984375 -3.765625 C 3.984375 -4.203125 3.878906 -4.523438 3.671875 -4.734375 C 3.460938 -4.953125 3.140625 -5.0625 2.703125 -5.0625 C 2.335938 -5.0625 2.054688 -4.984375 1.859375 -4.828125 C 1.660156 -4.679688 1.519531 -4.4375 1.4375 -4.09375 L 0.859375 -4.09375 L 0.859375 -5.28125 C 1.179688 -5.394531 1.515625 -5.476562 1.859375 -5.53125 C 2.210938 -5.59375 2.585938 -5.625 2.984375 -5.625 C 3.960938 -5.625 4.675781 -5.441406 5.125 -5.078125 C 5.582031 -4.710938 5.8125 -4.144531 5.8125 -3.375 Z M 3.984375 -1.71875 L 3.984375 -2.828125 L 3.3125 -2.828125 C 2.96875 -2.828125 2.703125 -2.734375 2.515625 -2.546875 C 2.335938 -2.359375 2.25 -2.09375 2.25 -1.75 C 2.25 -1.394531 2.3125 -1.128906 2.4375 -0.953125 C 2.570312 -0.785156 2.773438 -0.703125 3.046875 -0.703125 C 3.328125 -0.703125 3.550781 -0.796875 3.71875 -0.984375 C 3.894531 -1.171875 3.984375 -1.414062 3.984375 -1.71875 Z "/>
</symbol>
<symbol overflow="visible" id="glyph0-3">
<path style="stroke:none;" d="M 6.546875 -5.484375 L 6.546875 -0.625 L 7.3125 -0.625 L 7.3125 0 L 4.703125 0 L 4.703125 -0.78125 C 4.492188 -0.445312 4.242188 -0.207031 3.953125 -0.0625 C 3.671875 0.0820312 3.316406 0.15625 2.890625 0.15625 C 2.273438 0.15625 1.8125 -0.0234375 1.5 -0.390625 C 1.1875 -0.753906 1.03125 -1.289062 1.03125 -2 L 1.03125 -4.859375 L 0.25 -4.859375 L 0.25 -5.484375 L 2.859375 -5.484375 L 2.859375 -2.28125 C 2.859375 -1.601562 2.910156 -1.171875 3.015625 -0.984375 C 3.128906 -0.796875 3.335938 -0.703125 3.640625 -0.703125 C 4.015625 -0.703125 4.285156 -0.835938 4.453125 -1.109375 C 4.617188 -1.378906 4.703125 -1.8125 4.703125 -2.40625 L 4.703125 -4.859375 L 4.046875 -4.859375 L 4.046875 -5.484375 Z "/>
</symbol>
<symbol overflow="visible" id="glyph0-4">
<path style="stroke:none;" d="M 0.5 -0.15625 L 0.5 -1.6875 L 1.078125 -1.6875 C 1.128906 -1.28125 1.28125 -0.96875 1.53125 -0.75 C 1.789062 -0.539062 2.144531 -0.4375 2.59375 -0.4375 C 2.957031 -0.4375 3.238281 -0.5 3.4375 -0.625 C 3.632812 -0.75 3.734375 -0.9375 3.734375 -1.1875 C 3.734375 -1.40625 3.671875 -1.570312 3.546875 -1.6875 C 3.421875 -1.8125 3.179688 -1.914062 2.828125 -2 L 2.0625 -2.203125 C 1.5 -2.335938 1.085938 -2.535156 0.828125 -2.796875 C 0.578125 -3.066406 0.453125 -3.425781 0.453125 -3.875 C 0.453125 -4.46875 0.65625 -4.90625 1.0625 -5.1875 C 1.476562 -5.476562 2.117188 -5.625 2.984375 -5.625 C 3.304688 -5.625 3.648438 -5.597656 4.015625 -5.546875 C 4.378906 -5.492188 4.785156 -5.410156 5.234375 -5.296875 L 5.234375 -3.921875 L 4.640625 -3.921875 C 4.609375 -4.296875 4.472656 -4.578125 4.234375 -4.765625 C 4.003906 -4.953125 3.671875 -5.046875 3.234375 -5.046875 C 2.859375 -5.046875 2.578125 -4.984375 2.390625 -4.859375 C 2.203125 -4.742188 2.109375 -4.578125 2.109375 -4.359375 C 2.109375 -4.171875 2.160156 -4.019531 2.265625 -3.90625 C 2.378906 -3.800781 2.578125 -3.710938 2.859375 -3.640625 L 3.609375 -3.453125 C 4.328125 -3.273438 4.820312 -3.050781 5.09375 -2.78125 C 5.375 -2.507812 5.515625 -2.132812 5.515625 -1.65625 C 5.515625 -1.039062 5.289062 -0.582031 4.84375 -0.28125 C 4.40625 0.0078125 3.722656 0.15625 2.796875 0.15625 C 2.453125 0.15625 2.085938 0.128906 1.703125 0.078125 C 1.328125 0.0234375 0.925781 -0.0507812 0.5 -0.15625 Z "/>
</symbol>
<symbol overflow="visible" id="glyph0-5">
<path style="stroke:none;" d="M 2.96875 -0.625 L 3.75 -0.625 L 3.75 0 L 0.359375 0 L 0.359375 -0.625 L 1.140625 -0.625 L 1.140625 -7.40625 L 0.359375 -7.40625 L 0.359375 -8.03125 L 2.96875 -8.03125 Z "/>
</symbol>
<symbol overflow="visible" id="glyph0-6">
<path style="stroke:none;" d=""/>
</symbol>
<symbol overflow="visible" id="glyph0-7">
<path style="stroke:none;" d="M -0.078125 0 L -0.078125 -0.625 L 0.546875 -0.625 L 3.4375 -7.703125 L 4.671875 -7.703125 L 7.578125 -0.625 L 8.3125 -0.625 L 8.3125 0 L 4.703125 0 L 4.703125 -0.625 L 5.46875 -0.625 L 4.828125 -2.203125 L 1.9375 -2.203125 L 1.296875 -0.625 L 2.203125 -0.625 L 2.203125 0 Z M 2.1875 -2.828125 L 4.578125 -2.828125 L 3.390625 -5.765625 Z "/>
</symbol>
<symbol overflow="visible" id="glyph0-8">
<path style="stroke:none;" d="M 1.046875 -4.859375 L 0.25 -4.859375 L 0.25 -5.484375 L 1.046875 -5.484375 L 1.046875 -7.1875 L 2.875 -7.1875 L 2.875 -5.484375 L 4.390625 -5.484375 L 4.390625 -4.859375 L 2.875 -4.859375 L 2.875 -1.5 C 2.875 -1.019531 2.910156 -0.722656 2.984375 -0.609375 C 3.054688 -0.492188 3.195312 -0.4375 3.40625 -0.4375 C 3.625 -0.4375 3.785156 -0.507812 3.890625 -0.65625 C 3.992188 -0.800781 4.050781 -1.03125 4.0625 -1.34375 L 4.828125 -1.34375 C 4.796875 -0.789062 4.644531 -0.398438 4.375 -0.171875 C 4.101562 0.046875 3.640625 0.15625 2.984375 0.15625 C 2.222656 0.15625 1.707031 0.0351562 1.4375 -0.203125 C 1.175781 -0.441406 1.046875 -0.875 1.046875 -1.5 Z "/>
</symbol>
<symbol overflow="visible" id="glyph0-9">
<path style="stroke:none;" d="M 4.234375 -3.09375 C 4.234375 -3.8125 4.164062 -4.316406 4.03125 -4.609375 C 3.894531 -4.898438 3.664062 -5.046875 3.34375 -5.046875 C 3.03125 -5.046875 2.804688 -4.898438 2.671875 -4.609375 C 2.535156 -4.328125 2.46875 -3.851562 2.46875 -3.1875 L 2.46875 -3.09375 Z M 6.234375 -2.484375 L 2.46875 -2.484375 L 2.46875 -2.4375 C 2.46875 -1.726562 2.570312 -1.21875 2.78125 -0.90625 C 3 -0.59375 3.347656 -0.4375 3.828125 -0.4375 C 4.222656 -0.4375 4.539062 -0.539062 4.78125 -0.75 C 5.019531 -0.957031 5.175781 -1.257812 5.25 -1.65625 L 6.109375 -1.65625 C 5.960938 -1.039062 5.664062 -0.582031 5.21875 -0.28125 C 4.78125 0.0078125 4.164062 0.15625 3.375 0.15625 C 2.425781 0.15625 1.695312 -0.09375 1.1875 -0.59375 C 0.6875 -1.09375 0.4375 -1.8125 0.4375 -2.75 C 0.4375 -3.65625 0.691406 -4.359375 1.203125 -4.859375 C 1.722656 -5.367188 2.445312 -5.625 3.375 -5.625 C 4.28125 -5.625 4.972656 -5.359375 5.453125 -4.828125 C 5.941406 -4.296875 6.203125 -3.515625 6.234375 -2.484375 Z "/>
</symbol>
<symbol overflow="visible" id="glyph0-10">
<path style="stroke:none;" d="M 0.359375 0 L 0.359375 -0.625 L 1.140625 -0.625 L 1.140625 -4.859375 L 0.359375 -4.859375 L 0.359375 -5.484375 L 2.96875 -5.484375 L 2.96875 -4.703125 C 3.1875 -5.035156 3.4375 -5.269531 3.71875 -5.40625 C 4 -5.550781 4.351562 -5.625 4.78125 -5.625 C 5.394531 -5.625 5.859375 -5.441406 6.171875 -5.078125 C 6.492188 -4.722656 6.65625 -4.191406 6.65625 -3.484375 L 6.65625 -0.625 L 7.4375 -0.625 L 7.4375 0 L 4.15625 0 L 4.15625 -0.625 L 4.828125 -0.625 L 4.828125 -3.53125 C 4.828125 -4 4.765625 -4.320312 4.640625 -4.5 C 4.523438 -4.6875 4.320312 -4.78125 4.03125 -4.78125 C 3.664062 -4.78125 3.394531 -4.644531 3.21875 -4.375 C 3.050781 -4.101562 2.96875 -3.671875 2.96875 -3.078125 L 2.96875 -0.625 L 3.640625 -0.625 L 3.640625 0 Z "/>
</symbol>
<symbol overflow="visible" id="glyph0-11">
<path style="stroke:none;" d="M 0.96875 -7.03125 C 0.96875 -7.3125 1.0625 -7.546875 1.25 -7.734375 C 1.445312 -7.929688 1.6875 -8.03125 1.96875 -8.03125 C 2.238281 -8.03125 2.46875 -7.929688 2.65625 -7.734375 C 2.84375 -7.546875 2.9375 -7.3125 2.9375 -7.03125 C 2.9375 -6.757812 2.84375 -6.53125 2.65625 -6.34375 C 2.46875 -6.15625 2.238281 -6.0625 1.96875 -6.0625 C 1.6875 -6.0625 1.445312 -6.15625 1.25 -6.34375 C 1.0625 -6.53125 0.96875 -6.757812 0.96875 -7.03125 Z M 2.96875 -0.625 L 3.75 -0.625 L 3.75 0 L 0.359375 0 L 0.359375 -0.625 L 1.140625 -0.625 L 1.140625 -4.859375 L 0.359375 -4.859375 L 0.359375 -5.484375 L 2.96875 -5.484375 Z "/>
</symbol>
<symbol overflow="visible" id="glyph0-12">
<path style="stroke:none;" d="M 3.53125 -0.4375 C 3.914062 -0.4375 4.1875 -0.597656 4.34375 -0.921875 C 4.5 -1.253906 4.578125 -1.863281 4.578125 -2.75 C 4.578125 -3.625 4.5 -4.222656 4.34375 -4.546875 C 4.1875 -4.878906 3.914062 -5.046875 3.53125 -5.046875 C 3.132812 -5.046875 2.859375 -4.878906 2.703125 -4.546875 C 2.546875 -4.210938 2.46875 -3.613281 2.46875 -2.75 C 2.46875 -1.875 2.546875 -1.269531 2.703125 -0.9375 C 2.859375 -0.601562 3.132812 -0.4375 3.53125 -0.4375 Z M 3.53125 0.15625 C 2.5625 0.15625 1.800781 -0.0976562 1.25 -0.609375 C 0.707031 -1.128906 0.4375 -1.84375 0.4375 -2.75 C 0.4375 -3.644531 0.707031 -4.347656 1.25 -4.859375 C 1.800781 -5.367188 2.5625 -5.625 3.53125 -5.625 C 4.5 -5.625 5.253906 -5.367188 5.796875 -4.859375 C 6.347656 -4.347656 6.625 -3.644531 6.625 -2.75 C 6.625 -1.84375 6.347656 -1.128906 5.796875 -0.609375 C 5.253906 -0.0976562 4.5 0.15625 3.53125 0.15625 Z "/>
</symbol>
</g>
</defs>
<g id="surface51">
<g style="fill:rgb(10.196078%,10.196078%,10.196078%);fill-opacity:1;">
  <use xlink:href="#glyph0-1" x="30" y="29.911133"/>
  <use xlink:href="#glyph0-2" x="38" y="29.911133"/>
  <use xlink:href="#glyph0-3" x="45" y="29.911133"/>
  <use xlink:href="#glyph0-4" x="53" y="29.911133"/>
  <use xlink:href="#glyph0-2" x="59" y="29.911133"/>
  <use xlink:href="#glyph0-5" x="66" y="29.911133"/>
  <use xlink:href="#glyph0-6" x="70" y="29.911133"/>
  <use xlink:href="#glyph0-7" x="74" y="29.911133"/>
  <use xlink:href="#glyph0-8" x="82" y="29.911133"/>
  <use xlink:href="#glyph0-8" x="87" y="29.911133"/>
  <use xlink:href="#glyph0-9" x="92" y="29.911133"/>
  <use xlink:href="#glyph0-10" x="99" y="29.911133"/>
  <use xlink:href="#glyph0-8" x="107" y="29.911133"/>
  <use xlink:href="#glyph0-11" x="112" y="29.911133"/>
  <use xlink:href="#glyph0-12" x="116" y="29.911133"/>
  <use xlink:href="#glyph0-10" x="123" y="29.911133"/>
</g>
</g>
</svg>
