<?xml version="1.0" encoding="UTF-8"?>
<svg xmlns="http://www.w3.org/2000/svg" xmlns:xlink="http://www.w3.org/1999/xlink" width="1920pt" height="1080pt" viewBox="0 0 1920 1080" version="1.1">
<defs>
<g>
<symbol overflow="visible" id="glyph0-0">
<path style="stroke:none;" d="M 0.28125 0.984375 L 0.28125 -3.921875 L 3.0625 -3.921875 L 3.0625 0.984375 Z M 0.59375 0.671875 L 2.75 0.671875 L 2.75 -3.609375 L 0.59375 -3.609375 Z "/>
</symbol>
<symbol overflow="visible" id="glyph0-1">
<path style="stroke:none;" d="M 1.828125 -0.328125 L 2.203125 -0.328125 C 2.628906 -0.328125 2.9375 -0.460938 3.125 -0.734375 C 3.320312 -1.003906 3.421875 -1.4375 3.421875 -2.03125 C 3.421875 -2.625 3.320312 -3.050781 3.125 -3.3125 C 2.9375 -3.582031 2.628906 -3.71875 2.203125 -3.71875 L 1.828125 -3.71875 Z M 0.265625 0 L 0.265625 -0.328125 L 0.78125 -0.328125 L 0.78125 -3.71875 L 0.265625 -3.71875 L 0.265625 -4.0625 L 2.34375 -4.0625 C 3.070312 -4.0625 3.628906 -3.882812 4.015625 -3.53125 C 4.398438 -3.1875 4.59375 -2.6875 4.59375 -2.03125 C 4.59375 -1.375 4.398438 -0.867188 4.015625 -0.515625 C 3.628906 -0.171875 3.070312 0 2.34375 0 Z "/>
</symbol>
<symbol overflow="visible" id="glyph0-2">
<path style="stroke:none;" d="M 0.484375 -3.9375 C 0.722656 -4 0.953125 -4.046875 1.171875 -4.078125 C 1.398438 -4.109375 1.617188 -4.125 1.828125 -4.125 C 2.316406 -4.125 2.691406 -4.035156 2.953125 -3.859375 C 3.210938 -3.691406 3.34375 -3.441406 3.34375 -3.109375 C 3.34375 -2.867188 3.265625 -2.671875 3.109375 -2.515625 C 2.960938 -2.367188 2.75 -2.269531 2.46875 -2.21875 C 2.820312 -2.15625 3.082031 -2.03125 3.25 -1.84375 C 3.425781 -1.664062 3.515625 -1.414062 3.515625 -1.09375 C 3.515625 -0.71875 3.363281 -0.425781 3.0625 -0.21875 C 2.757812 -0.0195312 2.328125 0.078125 1.765625 0.078125 C 1.546875 0.078125 1.320312 0.0546875 1.09375 0.015625 C 0.875 -0.015625 0.640625 -0.0664062 0.390625 -0.140625 L 0.390625 -1.03125 L 0.71875 -1.03125 C 0.738281 -0.769531 0.816406 -0.570312 0.953125 -0.4375 C 1.097656 -0.300781 1.296875 -0.234375 1.546875 -0.234375 C 1.816406 -0.234375 2.023438 -0.3125 2.171875 -0.46875 C 2.328125 -0.625 2.40625 -0.84375 2.40625 -1.125 C 2.40625 -1.414062 2.328125 -1.640625 2.171875 -1.796875 C 2.015625 -1.953125 1.789062 -2.03125 1.5 -2.03125 L 1.328125 -2.03125 L 1.328125 -2.359375 L 1.46875 -2.359375 C 1.738281 -2.359375 1.9375 -2.421875 2.0625 -2.546875 C 2.195312 -2.671875 2.265625 -2.851562 2.265625 -3.09375 C 2.265625 -3.320312 2.203125 -3.5 2.078125 -3.625 C 1.953125 -3.75 1.773438 -3.8125 1.546875 -3.8125 C 1.328125 -3.8125 1.15625 -3.75 1.03125 -3.625 C 0.90625 -3.507812 0.832031 -3.34375 0.8125 -3.125 L 0.484375 -3.125 Z "/>
</symbol>
</g>
</defs>
<g id="surface36">
<g style="fill:rgb(10.196078%,10.196078%,10.196078%);fill-opacity:1;">
  <use xlink:href="#glyph0-1" x="30" y="25.216797"/>
  <use xlink:href="#glyph0-2" x="35" y="25.216797"/>
</g>
</g>
</svg>
